<svg xmlns="http://www.w3.org/2000/svg" xmlns:xlink="http://www.w3.org/1999/xlink" viewBox="0 0 485.57 726.99"><defs><style>.cls-1{mask:url(#mask);filter:url(#luminosity-noclip-3);}.cls-2,.cls-4{mix-blend-mode:multiply;}.cls-2{fill:url(#linear-gradient);}.cls-3{mask:url(#mask-2);filter:url(#luminosity-noclip-4);}.cls-4{fill:url(#linear-gradient-2);}.cls-15,.cls-16,.cls-17,.cls-21,.cls-5{fill:none;}.cls-27,.cls-6{fill:#fff;}.cls-7{clip-path:url(#clip-path);}.cls-8{fill:#b4f9b4;}.cls-9{fill:#fecad0;}.cls-10{fill:#feb160;}.cls-11{fill:#212b6b;}.cls-12{fill:#171c51;}.cls-13{fill:#c05142;}.cls-14{fill:#ee84aa;}.cls-15{stroke:#e45e8e;stroke-miterlimit:9;}.cls-15,.cls-16,.cls-21{stroke-linecap:round;}.cls-15,.cls-21{stroke-width:0.53px;}.cls-16,.cls-21{stroke:#171c51;stroke-linejoin:round;}.cls-16,.cls-17{stroke-width:0.79px;}.cls-17{stroke:#587cf8;stroke-miterlimit:10;}.cls-18{fill:#96a4cd;}.cls-19{fill:#e6eafd;}.cls-20{fill:#7389bb;}.cls-22{fill:#555ace;}.cls-23{mask:url(#mask-3);}.cls-24{fill:url(#linear-gradient-3);}.cls-25{mask:url(#mask-4);}.cls-26{fill:url(#linear-gradient-4);}.cls-27,.cls-54{opacity:0;}.cls-28{fill:#f9f9fa;}.cls-28,.cls-55{opacity:0.09;}.cls-29{fill:#f4f4f4;}.cls-29,.cls-56{opacity:0.18;}.cls-30{fill:#eeeeef;}.cls-30,.cls-57{opacity:0.27;}.cls-31{fill:#e8e9ea;}.cls-31,.cls-58{opacity:0.36;}.cls-32{fill:#e3e3e4;}.cls-32,.cls-59{opacity:0.45;}.cls-33{fill:#dddedf;}.cls-33,.cls-60{opacity:0.55;}.cls-34{fill:#d8d8d9;}.cls-34,.cls-61{opacity:0.64;}.cls-35{fill:#d2d3d4;}.cls-35,.cls-62{opacity:0.73;}.cls-36{fill:#cccdcf;}.cls-36,.cls-63{opacity:0.82;}.cls-37{fill:#c7c8c9;}.cls-37,.cls-64{opacity:0.91;}.cls-38{fill:#c1c2c4;}.cls-39{fill:url(#linear-gradient-5);}.cls-40{fill:url(#linear-gradient-6);}.cls-41{fill:url(#linear-gradient-7);}.cls-42{fill:url(#linear-gradient-8);}.cls-43{fill:#898989;}.cls-44{fill:url(#linear-gradient-9);}.cls-45{fill:url(#linear-gradient-10);}.cls-46{fill:url(#linear-gradient-11);}.cls-47{fill:url(#linear-gradient-12);}.cls-48{fill:url(#linear-gradient-13);}.cls-49{fill:url(#linear-gradient-14);}.cls-50{fill:url(#linear-gradient-15);}.cls-51{fill:url(#linear-gradient-16);}.cls-52{fill:url(#linear-gradient-17);}.cls-53{fill:url(#linear-gradient-18);}.cls-54{fill:#e2e2e2;}.cls-55{fill:#ddd;}.cls-56{fill:#d9d9d9;}.cls-57{fill:#d4d4d4;}.cls-58{fill:#cfcfcf;}.cls-59{fill:#cbcbcb;}.cls-60{fill:#c6c6c6;}.cls-61{fill:#c2c2c2;}.cls-62{fill:#bdbdbd;}.cls-63{fill:#b8b8b8;}.cls-64{fill:#b4b4b4;}.cls-65{fill:#afafaf;}.cls-66{fill:url(#linear-gradient-19);}.cls-67{fill:url(#linear-gradient-20);}.cls-68,.cls-69{fill:#0091d2;}.cls-68{opacity:0.33;}.cls-70{filter:url(#luminosity-noclip-2);}.cls-71{filter:url(#luminosity-noclip);}</style><filter id="luminosity-noclip" x="198.3" y="-8777.97" width="146.79" height="32766" filterUnits="userSpaceOnUse" color-interpolation-filters="sRGB"><feFlood flood-color="#fff" result="bg"/><feBlend in="SourceGraphic" in2="bg"/></filter><mask id="mask" x="198.3" y="-8777.97" width="146.79" height="32766" maskUnits="userSpaceOnUse"><g class="cls-71"/></mask><linearGradient id="linear-gradient" x1="364.58" y1="92.92" x2="228.6" y2="92.92" gradientTransform="translate(-22.49 247.32) rotate(-15.6)" gradientUnits="userSpaceOnUse"><stop offset="0" stop-color="#fff"/><stop offset="1"/></linearGradient><filter id="luminosity-noclip-2" x="292.19" y="-8777.97" width="63.59" height="32766" filterUnits="userSpaceOnUse" color-interpolation-filters="sRGB"><feFlood flood-color="#fff" result="bg"/><feBlend in="SourceGraphic" in2="bg"/></filter><mask id="mask-2" x="292.19" y="-8777.97" width="63.59" height="32766" maskUnits="userSpaceOnUse"><g class="cls-70"/></mask><linearGradient id="linear-gradient-2" x1="366.04" y1="148.44" x2="311.33" y2="148.44" xlink:href="#linear-gradient"/><clipPath id="clip-path"><rect class="cls-5" x="52.11" y="81.59" width="398.08" height="252"/></clipPath><filter id="luminosity-noclip-3" x="198.3" y="241.02" width="146.79" height="41.31" filterUnits="userSpaceOnUse" color-interpolation-filters="sRGB"><feFlood flood-color="#fff" result="bg"/><feBlend in="SourceGraphic" in2="bg"/></filter><mask id="mask-3" x="198.3" y="241.02" width="146.79" height="41.31" maskUnits="userSpaceOnUse"><g class="cls-1"><polygon class="cls-2" points="345.09 243.52 199.03 282.33 198.3 279.82 344.35 241.02 345.09 243.52"/></g></mask><linearGradient id="linear-gradient-3" x1="364.58" y1="92.92" x2="228.6" y2="92.92" gradientTransform="translate(-22.49 247.32) rotate(-15.6)" gradientUnits="userSpaceOnUse"><stop offset="0" stop-color="#ededed"/><stop offset="1" stop-color="#fff"/></linearGradient><filter id="luminosity-noclip-4" x="292.19" y="295.12" width="63.59" height="19.21" filterUnits="userSpaceOnUse" color-interpolation-filters="sRGB"><feFlood flood-color="#fff" result="bg"/><feBlend in="SourceGraphic" in2="bg"/></filter><mask id="mask-4" x="292.19" y="295.12" width="63.59" height="19.21" maskUnits="userSpaceOnUse"><g class="cls-3"><polygon class="cls-4" points="355.78 297.63 292.93 314.33 292.19 311.82 355.05 295.12 355.78 297.63"/></g></mask><linearGradient id="linear-gradient-4" x1="366.04" y1="148.44" x2="311.33" y2="148.44" xlink:href="#linear-gradient-3"/><linearGradient id="linear-gradient-5" x1="339.58" y1="190.99" x2="346.4" y2="190.99" gradientUnits="userSpaceOnUse"><stop offset="0" stop-color="#b3b3b3"/><stop offset="1" stop-color="#666"/></linearGradient><linearGradient id="linear-gradient-6" x1="317.96" y1="162.69" x2="427.99" y2="219.22" gradientUnits="userSpaceOnUse"><stop offset="0" stop-color="#fff"/><stop offset="1" stop-color="#b0b0b0"/></linearGradient><linearGradient id="linear-gradient-7" x1="387.89" y1="167.8" x2="394.71" y2="167.8" xlink:href="#linear-gradient-5"/><linearGradient id="linear-gradient-8" x1="366.27" y1="139.5" x2="476.3" y2="196.03" xlink:href="#linear-gradient-6"/><linearGradient id="linear-gradient-9" x1="270.47" y1="184.15" x2="277.71" y2="184.15" xlink:href="#linear-gradient-5"/><linearGradient id="linear-gradient-10" x1="247.53" y1="161.45" x2="364.28" y2="221.43" xlink:href="#linear-gradient-6"/><linearGradient id="linear-gradient-11" x1="252.68" y1="194.5" x2="272.66" y2="194.5" gradientUnits="userSpaceOnUse"><stop offset="0" stop-color="#fff"/><stop offset="1" stop-color="#666"/></linearGradient><linearGradient id="linear-gradient-12" x1="258.52" y1="184.57" x2="291.03" y2="214.49" xlink:href="#linear-gradient-6"/><linearGradient id="linear-gradient-13" x1="298.06" y1="146.93" x2="311.13" y2="146.93" xlink:href="#linear-gradient-5"/><linearGradient id="linear-gradient-14" x1="256.63" y1="110.56" x2="467.49" y2="218.89" xlink:href="#linear-gradient-6"/><linearGradient id="linear-gradient-15" x1="344.11" y1="229.72" x2="386.96" y2="229.72" xlink:href="#linear-gradient-11"/><linearGradient id="linear-gradient-16" x1="356.63" y1="208.42" x2="426.36" y2="272.59" xlink:href="#linear-gradient-6"/><linearGradient id="linear-gradient-17" x1="386.7" y1="234.26" x2="456.68" y2="233.22" gradientUnits="userSpaceOnUse"><stop offset="0" stop-color="#fff"/><stop offset="1" stop-color="#4d4d4d"/></linearGradient><linearGradient id="linear-gradient-18" x1="400.3" y1="186.49" x2="516.38" y2="293.3" xlink:href="#linear-gradient-6"/><linearGradient id="linear-gradient-19" x1="197.31" y1="225.37" x2="251.37" y2="225.37" xlink:href="#linear-gradient-11"/><linearGradient id="linear-gradient-20" x1="213.1" y1="198.51" x2="301.08" y2="279.47" xlink:href="#linear-gradient-6"/></defs><title>Asset 9</title><g id="Layer_2" data-name="Layer 2"><g id="Layer_1-2" data-name="Layer 1"><rect class="cls-6" x="52.11" y="81.59" width="398.08" height="252"/><g class="cls-7"><ellipse class="cls-8" cx="404.28" cy="102.8" rx="1.22" ry="1.16"/><ellipse class="cls-8" cx="172.74" cy="261.09" rx="0.81" ry="0.77"/><ellipse class="cls-8" cx="411.99" cy="145.74" rx="0.81" ry="0.77"/><ellipse class="cls-8" cx="436.53" cy="136.69" rx="0.38" ry="0.36"/><polyline class="cls-9" points="181.68 626.92 188.72 694.94 181.87 707.7 162.9 702.06 153.55 634.78"/><path class="cls-10" d="M229.4,709.82l-41.83-19.39-7,10.57-17.67,1.06L162,717.45l66.62-4A1.9,1.9,0,0,0,229.4,709.82Z"/><polyline class="cls-9" points="58.13 634.3 39.34 703.86 47.82 715.7 65.89 707.85 87.06 638.75"/><path class="cls-10" d="M.93,723.46l39-24.22,8.33,9.66,17.67-1L68.82,723,2.2,727A1.92,1.92,0,0,1,.93,723.46Z"/><path class="cls-11" d="M164.62,402.72l26.53,256.73-37.72,4.84-25.08-160L82.22,673.49l-34.28-7.84s34-177.73,37.49-203,0-38.25,7-56.19Z"/><path class="cls-12" d="M123,231.74c10.74-3.43,20,11,18.68,29.56s16.85,35.24,15.44,42.89-38.63,20.43-64,21.74-33.9-8.53-29.7-16.15,11.18-15.21,9.08-37.29S84.14,208.17,123,231.74Z"/><path class="cls-13" d="M57.49,350.09l15.72,9.28,1.48.86,11.72,6.93,4.43,41.36,6.85-.53,1.41-.12,19.76-1.55,1.41-.1L140,404.67l1.41-.12L161.19,403l1.42-.12,2-.15s-1.51-10.08.7-25.05-2.91-24.86-2.91-24.86L182.11,334,170.4,319.12a32.37,32.37,0,0,0-14-10.16c-.48-.19-1-.36-1.45-.52a31.79,31.79,0,0,0-4.93-1.25l-15.19-2.68-.83-.16-.61-.1-5.15-.93-14.7.93-1.42.08-16,1-3.64,2.05-1.37.79,0,0-13,7.37a31.68,31.68,0,0,0-6,4.37c-.46.4-.91.84-1.34,1.28a30.18,30.18,0,0,0-6.92,11.09Z"/><path class="cls-6" d="M91.08,308.2c5,8.09,16.86,12.28,31,10.56C134,317.3,135,309.8,134,304.35l-5.76-1-32.14,2Z"/><path class="cls-9" d="M96.12,305.34s6.58,10.55,21.59,9.66,10.55-11.68,10.55-11.68l-4.34-1-.2-6.84-.27-10-26-5.71a13.28,13.28,0,0,1,1.43,4c1.68,7.45,1.22,19.94,1.22,19.94Z"/><path class="cls-14" d="M97.43,279.77a13.28,13.28,0,0,1,1.43,4s0,0,0,0c8.06,13,20.14,12.45,24.84,11.65l-.27-10Z"/><path class="cls-9" d="M123.13,242.3c-1.58,11.85-27.92,21.56-29.74,23-1.07.85-1.31,2.73-1.32,4.15a.3.3,0,0,1-.57.11c-.79-1.69-2.31-4.08-4.62-4.2-3.58-.18-6.74,4.2-4.38,9.09s10.31,1.76,10.31,1.76,7.6,14.62,22.84,14.12,17.81-12.71,16.17-20-1.77-11-1.39-15.37S124.78,247.85,123.13,242.3Z"/><path class="cls-15" d="M85.88,268.33c1.3.27,2.94,3.42,2.47,5"/><path d="M111.84,265.28a1.28,1.28,0,1,1-1.36-1.41A1.39,1.39,0,0,1,111.84,265.28Z"/><path d="M126.7,263.36a1.38,1.38,0,0,1-1.17,1.56,1.51,1.51,0,1,1,1.17-1.56Z"/><path class="cls-16" d="M102.94,261.12a7.07,7.07,0,0,1,8.08-1.43"/><path class="cls-16" d="M127.62,259.51s-3.36-3.05-8.22.22"/><path class="cls-17" d="M119.8,267.71a6.34,6.34,0,0,0,6.9,5.67,6.25,6.25,0,0,0,6.1-6.44,6.34,6.34,0,0,0-6.9-5.67A6.26,6.26,0,0,0,119.8,267.71Z"/><path class="cls-17" d="M101.78,268.79a6.36,6.36,0,0,0,6.9,5.67,6.26,6.26,0,0,0,6.1-6.45,6.36,6.36,0,0,0-6.9-5.67A6.26,6.26,0,0,0,101.78,268.79Z"/><path class="cls-17" d="M119.89,266.3s-2.91-2.3-5.39.32"/><path class="cls-18" d="M169.6,401.82l63.07-3.76h0a2.27,2.27,0,0,0,2.2-1.69l10.51-46.54a2.15,2.15,0,0,0-1.79-2.55l-.79-.15h0s-.05,0-.07,0l-63.08,3.76Z"/><path class="cls-19" d="M205.69,376.76a4.78,4.78,0,0,0,5.19,4.27,4.71,4.71,0,0,0,4.6-4.85,4.78,4.78,0,0,0-5.2-4.27A4.7,4.7,0,0,0,205.69,376.76Z"/><path class="cls-20" d="M170.46,401.78l-51.78,3.09a1.42,1.42,0,0,1-1.52-1.28l-.15-2.34a1.39,1.39,0,0,1,1.34-1.44l51.78-3.09a1.41,1.41,0,0,1,1.52,1.27l.15,2.34A1.39,1.39,0,0,1,170.46,401.78Z"/><path class="cls-20" d="M182.57,352.08l-11,48.76a.66.66,0,0,1-.77.48l-4-.79a.61.61,0,0,1-.51-.72l11-48.76a.65.65,0,0,1,.77-.47l4,.78A.61.61,0,0,1,182.57,352.08Z"/><path class="cls-9" d="M39.44,422.74A19.22,19.22,0,0,0,48,437.35a22.18,22.18,0,0,0,25.21-.49l33.59-24.58s19.34,2.76,27.88,1.52,17.41-6,17.37-7.67-34.88-3-33.34-4.39,17-2.47,17-5.59-4-3.94-10.44-4-14.51,3.52-14.51,3.52L76,402.34l8.19-27.7,2.22-7.48L57.49,350.09l-1.44,5.55-16,61.3A18.22,18.22,0,0,0,39.44,422.74Z"/><polygon class="cls-14" points="57.49 350.09 56.05 355.64 84.19 374.64 86.41 367.16 57.49 350.09"/><line class="cls-15" x1="76.01" y1="402.33" x2="61.13" y2="405.12"/><path class="cls-12" d="M159.34,399.9a.83.83,0,0,0,1.65-.1.82.82,0,0,0-.88-.72A.79.79,0,0,0,159.34,399.9Z"/><path class="cls-12" d="M156,400.1a.83.83,0,0,0,1.65-.1.82.82,0,0,0-.88-.72A.8.8,0,0,0,156,400.1Z"/><path class="cls-18" d="M152,673.86l42.58-3.9a1.22,1.22,0,0,0,1.15-1.29l-1.16-11.29a1.26,1.26,0,0,0-1.39-1.07l-42.57,3.9a1.21,1.21,0,0,0-1.15,1.29l1.16,11.29A1.24,1.24,0,0,0,152,673.86Z"/><path class="cls-18" d="M42.51,671.77l41.64,9a1.28,1.28,0,0,0,1.53-.89l2.77-11.05a1.18,1.18,0,0,0-1-1.42l-41.64-9a1.28,1.28,0,0,0-1.53.89l-2.77,11.05A1.18,1.18,0,0,0,42.51,671.77Z"/><line class="cls-21" x1="137.07" y1="470.02" x2="122.98" y2="523.98"/><path class="cls-21" d="M159.47,376.84c-8.81,8.59-25.24,10.77-25.24,10.77"/><line class="cls-21" x1="86.41" y1="367.16" x2="97.1" y2="347.73"/><path class="cls-21" d="M162.41,352.81c-5.74-9.16-7.59-21.4-7.59-21.4"/><ellipse class="cls-8" cx="314.53" cy="118.45" rx="1.76" ry="1.68"/><ellipse class="cls-8" cx="284.07" cy="107.72" rx="0.71" ry="0.67"/><ellipse class="cls-8" cx="259.4" cy="119.13" rx="0.71" ry="0.67"/><polygon class="cls-22" points="370.84 318.95 218.05 359.55 191.34 268.49 344.14 227.89 370.84 318.95"/><polygon class="cls-22" points="344.14 227.89 191.34 268.49 186.32 251.36 339.11 210.76 344.14 227.89"/><polygon class="cls-6" points="212.23 261.4 192.87 266.54 194.28 250.78 213.64 245.64 212.23 261.4"/><polygon class="cls-6" points="251.31 251.01 231.96 256.16 233.37 240.4 252.73 235.25 251.31 251.01"/><polygon class="cls-6" points="290.74 240.54 271.38 245.68 272.8 229.92 292.16 224.78 290.74 240.54"/><polygon class="cls-6" points="333.77 229.1 314.41 234.25 315.83 218.49 335.19 213.34 333.77 229.1"/><polygon class="cls-22" points="264.52 119.72 186.64 251.27 170.35 242.54 248.24 110.99 264.52 119.72"/><polygon class="cls-6" points="196.13 232.2 186.27 248.87 175.56 236.77 185.43 220.11 196.13 232.2"/><polygon class="cls-6" points="216.06 198.55 206.19 215.22 195.49 203.12 205.35 186.45 216.06 198.55"/><polygon class="cls-6" points="236.16 164.6 226.29 181.27 215.58 169.17 225.45 152.5 236.16 164.6"/><polygon class="cls-6" points="258.09 127.55 248.22 144.22 237.52 132.12 247.38 115.46 258.09 127.55"/><g class="cls-23"><polygon class="cls-24" points="345.09 243.52 199.03 282.33 198.3 279.82 344.35 241.02 345.09 243.52"/></g><g class="cls-25"><polygon class="cls-26" points="355.78 297.63 292.93 314.33 292.19 311.82 355.05 295.12 355.78 297.63"/></g><rect class="cls-5" x="51.63" y="80.83" width="397.81" height="251.6"/><path class="cls-27" d="M373.53,206.68,356.65,216c-3.54,1.94-9.73,1.7-13.82-.55l-14.9-8.19c-4.09-2.24-4.53-5.64-1-7.59l16.89-9.28c3.54-1.95,9.72-1.7,13.81.54l14.9,8.2C376.63,201.33,377.08,204.73,373.53,206.68Z"/><path class="cls-28" d="M371.82,206.13l-15.95,8.76c-3.34,1.84-9.18,1.61-13-.51l-14.07-7.74c-3.86-2.12-4.28-5.33-.94-7.17l15.95-8.76c3.34-1.84,9.18-1.61,13,.52L370.88,199C374.74,201.08,375.16,204.29,371.82,206.13Z"/><path class="cls-29" d="M370.1,205.58l-15,8.24c-3.15,1.73-8.64,1.51-12.27-.48l-13.24-7.28c-3.63-2-4-5-.88-6.74l15-8.25c3.14-1.73,8.64-1.51,12.27.49l13.24,7.27C372.85,200.83,373.25,203.85,370.1,205.58Z"/><path class="cls-30" d="M368.38,205l-14.06,7.72c-2.94,1.62-8.09,1.42-11.5-.45l-12.4-6.82c-3.41-1.87-3.78-4.7-.83-6.32l14.06-7.72c3-1.62,8.1-1.42,11.5.45l12.41,6.82C371,200.58,371.33,203.41,368.38,205Z"/><path class="cls-31" d="M366.67,204.48l-13.12,7.21c-2.75,1.51-7.55,1.32-10.73-.43l-11.57-6.36c-3.18-1.74-3.52-4.38-.77-5.89l13.11-7.21c2.75-1.51,7.55-1.32,10.73.42l11.57,6.36C369.07,200.33,369.42,203,366.67,204.48Z"/><path class="cls-32" d="M365,203.93l-12.17,6.69c-2.56,1.4-7,1.23-10-.39l-10.74-5.91c-2.95-1.62-3.27-4.07-.72-5.47l12.17-6.69c2.56-1.4,7-1.23,10,.39l10.74,5.91C367.18,200.08,367.5,202.53,365,203.93Z"/><path class="cls-33" d="M363.23,203.38,352,209.55c-2.35,1.3-6.47,1.13-9.18-.36l-9.92-5.45c-2.71-1.49-3-3.75-.65-5.05l11.22-6.17c2.36-1.29,6.47-1.13,9.19.36l9.91,5.45C365.29,199.83,365.58,202.09,363.23,203.38Z"/><path class="cls-34" d="M361.51,202.83l-10.28,5.65c-2.16,1.19-5.93,1-8.42-.33l-9.08-5c-2.49-1.37-2.76-3.44-.6-4.62l10.29-5.66c2.15-1.18,5.92-1,8.41.34l9.08,5C363.4,199.57,363.67,201.64,361.51,202.83Z"/><path class="cls-35" d="M359.8,202.28l-9.35,5.14a8.87,8.87,0,0,1-7.64-.31l-8.25-4.53c-2.26-1.24-2.5-3.12-.55-4.2l9.35-5.13a8.87,8.87,0,0,1,7.64.3l8.25,4.53C361.51,199.32,361.75,201.2,359.8,202.28Z"/><path class="cls-36" d="M358.08,201.73l-8.4,4.62a8,8,0,0,1-6.87-.27L335.39,202c-2-1.12-2.25-2.81-.49-3.77l8.4-4.62a8,8,0,0,1,6.87.27l7.41,4.07C359.62,199.07,359.84,200.76,358.08,201.73Z"/><path class="cls-37" d="M356.36,201.18l-7.46,4.1a7.09,7.09,0,0,1-6.1-.24l-6.58-3.62c-1.8-1-2-2.49-.44-3.35l7.46-4.1a7.09,7.09,0,0,1,6.1.24l6.58,3.62C357.73,198.82,357.92,200.32,356.36,201.18Z"/><path class="cls-38" d="M354.64,200.63l-6.51,3.58a6.18,6.18,0,0,1-5.33-.21l-5.75-3.16c-1.58-.86-1.75-2.18-.38-2.93l6.51-3.58a6.22,6.22,0,0,1,5.33.21l5.75,3.16C355.84,198.57,356,199.88,354.64,200.63Z"/><path class="cls-39" d="M357.05,198.67h0V175.51l-29.34-.28V198.4a1.22,1.22,0,0,0,0,.27h0a3.23,3.23,0,0,0,1.92,2.33l8.52,4.68c2.33,1.28,5.87,1.42,7.89.31l9.65-5.31A2.19,2.19,0,0,0,357.05,198.67Z"/><path class="cls-40" d="M355.69,177.25l-9.65,5.3c-2,1.11-5.56,1-7.89-.31l-8.52-4.68c-2.34-1.28-2.59-3.23-.57-4.34l9.65-5.3c2-1.12,5.56-1,7.9.31l8.51,4.68C357.46,174.19,357.71,176.14,355.69,177.25Z"/><path class="cls-27" d="M421.84,183.49,405,192.77c-3.54,1.94-9.72,1.7-13.81-.55L376.24,184c-4.09-2.25-4.54-5.64-1-7.59l16.88-9.28c3.54-1.95,9.73-1.7,13.82.54l14.9,8.19C424.94,178.14,425.38,181.54,421.84,183.49Z"/><path class="cls-28" d="M420.12,182.94l-15.94,8.76c-3.34,1.84-9.18,1.61-13-.51l-14.07-7.74c-3.86-2.12-4.28-5.33-.94-7.17l15.94-8.76c3.35-1.84,9.19-1.61,13.05.52l14.07,7.73C423.05,177.89,423.47,181.1,420.12,182.94Z"/><path class="cls-29" d="M418.41,182.39l-15,8.24c-3.15,1.73-8.64,1.51-12.28-.48l-13.23-7.28c-3.64-2-4-5-.89-6.74l15-8.25c3.14-1.73,8.63-1.51,12.27.49l13.24,7.27C421.16,177.64,421.55,180.66,418.41,182.39Z"/><path class="cls-30" d="M416.69,181.84l-14.06,7.72c-2.95,1.62-8.1,1.42-11.5-.45l-12.41-6.82c-3.4-1.87-3.77-4.7-.82-6.32L392,168.25c2.94-1.62,8.09-1.42,11.5.45l12.4,6.82C419.27,177.39,419.64,180.22,416.69,181.84Z"/><path class="cls-31" d="M415,181.29l-13.11,7.21c-2.75,1.51-7.56,1.32-10.73-.43l-11.58-6.36c-3.17-1.74-3.52-4.38-.77-5.89l13.12-7.21c2.75-1.51,7.55-1.32,10.73.42l11.57,6.36C417.38,177.14,417.72,179.78,415,181.29Z"/><path class="cls-32" d="M413.25,180.74l-12.17,6.69c-2.55,1.4-7,1.23-9.95-.39l-10.75-5.91c-2.94-1.62-3.26-4.07-.71-5.47L391.84,169c2.55-1.4,7-1.23,10,.39l10.74,5.91C415.49,176.89,415.81,179.34,413.25,180.74Z"/><path class="cls-33" d="M411.54,180.19l-11.23,6.17c-2.36,1.29-6.47,1.13-9.19-.36l-9.91-5.45c-2.72-1.49-3-3.75-.66-5.05l11.23-6.17c2.36-1.29,6.47-1.13,9.19.36l9.91,5.45C413.6,176.63,413.89,178.9,411.54,180.19Z"/><path class="cls-34" d="M409.82,179.64l-10.29,5.65c-2.15,1.19-5.92,1-8.41-.33L382,180c-2.49-1.37-2.76-3.44-.6-4.62l10.28-5.66c2.16-1.18,5.93-1,8.42.34l9.08,5C411.71,176.38,412,178.45,409.82,179.64Z"/><path class="cls-35" d="M408.1,179.09l-9.34,5.13a8.84,8.84,0,0,1-7.64-.3l-8.25-4.53c-2.26-1.24-2.51-3.12-.55-4.2l9.34-5.13a8.86,8.86,0,0,1,7.65.3l8.24,4.53C409.82,176.13,410.06,178,408.1,179.09Z"/><path class="cls-36" d="M406.39,178.54,398,183.16a8,8,0,0,1-6.87-.27l-7.41-4.08c-2-1.12-2.26-2.81-.49-3.78l8.4-4.61a8,8,0,0,1,6.87.27l7.41,4.07C407.93,175.88,408.15,177.57,406.39,178.54Z"/><path class="cls-37" d="M404.67,178l-7.46,4.1a7.09,7.09,0,0,1-6.1-.24l-6.58-3.62c-1.81-1-2-2.49-.44-3.35l7.46-4.1a7.09,7.09,0,0,1,6.1.24l6.58,3.62C406,175.63,406.23,177.13,404.67,178Z"/><path class="cls-38" d="M403,177.44,396.44,181a6.18,6.18,0,0,1-5.33-.21l-5.75-3.16c-1.58-.87-1.75-2.18-.38-2.93l6.51-3.58a6.22,6.22,0,0,1,5.33.21l5.75,3.16C404.14,175.38,404.32,176.69,403,177.44Z"/><path class="cls-41" d="M405.35,175.48h0V152.31L376,152v23.44h0a3.25,3.25,0,0,0,1.93,2.33l8.51,4.68c2.34,1.28,5.87,1.42,7.9.31l9.65-5.31A2.16,2.16,0,0,0,405.35,175.48Z"/><path class="cls-42" d="M404,154.06l-9.65,5.3c-2,1.11-5.56,1-7.9-.31l-8.51-4.68c-2.34-1.29-2.59-3.23-.57-4.34l9.65-5.3c2-1.12,5.56-1,7.89.31l8.52,4.68C405.77,151,406,152.94,404,154.06Z"/><path class="cls-43" d="M247.38,170.19a1.56,1.56,0,1,1,1.55-1.55A1.56,1.56,0,0,1,247.38,170.19Zm0-2.73a1.18,1.18,0,1,0,1.15,1.18A1.17,1.17,0,0,0,247.38,167.46Z"/><rect class="cls-43" x="243.5" y="163.58" width="0.4" height="4.2"/><path class="cls-27" d="M306.5,193.48l-17.92,9.85c-3.76,2.06-10.32,1.8-14.66-.58l-15.81-8.69c-4.34-2.39-4.81-6-1.06-8.06L275,176.15c3.76-2.06,10.32-1.8,14.66.58l15.82,8.69C309.79,187.81,310.26,191.41,306.5,193.48Z"/><path class="cls-28" d="M304.68,192.9l-16.92,9.29c-3.55,1.95-9.75,1.71-13.84-.54L259,193.44c-4.1-2.25-4.55-5.65-1-7.6l16.92-9.3c3.55-1.95,9.75-1.71,13.84.54l14.93,8.21C307.78,187.54,308.22,191,304.68,192.9Z"/><path class="cls-29" d="M302.85,192.31l-15.91,8.75c-3.34,1.84-9.17,1.61-13-.51l-14-7.72c-3.86-2.12-4.28-5.33-.94-7.16l15.92-8.75c3.34-1.83,9.17-1.6,13,.52l14.05,7.72C305.77,187.27,306.19,190.48,302.85,192.31Z"/><path class="cls-30" d="M301,191.73l-14.92,8.2c-3.12,1.72-8.59,1.5-12.2-.48l-13.16-7.24c-3.62-2-4-5-.88-6.71l14.92-8.19c3.13-1.72,8.59-1.51,12.2.48L300.16,185C303.77,187,304.16,190,301,191.73Z"/><path class="cls-31" d="M299.21,191.15l-13.92,7.65c-2.92,1.6-8,1.4-11.38-.45l-12.28-6.75c-3.37-1.86-3.74-4.66-.82-6.26l13.92-7.65c2.91-1.6,8-1.4,11.38.45l12.28,6.75C301.76,186.74,302.13,189.54,299.21,191.15Z"/><path class="cls-32" d="M297.39,190.56l-12.92,7.1c-2.71,1.49-7.44,1.3-10.57-.41L262.51,191c-3.13-1.72-3.47-4.32-.76-5.81l12.91-7.1c2.71-1.48,7.44-1.3,10.57.42l11.4,6.27C299.76,186.47,300.1,189.07,297.39,190.56Z"/><path class="cls-33" d="M295.57,190l-11.92,6.55c-2.5,1.37-6.86,1.2-9.75-.39l-10.51-5.78c-2.89-1.58-3.2-4-.7-5.35l11.91-6.55c2.5-1.37,6.86-1.2,9.75.38l10.52,5.78C297.75,186.21,298.06,188.61,295.57,190Z"/><path class="cls-34" d="M293.74,189.4l-10.91,6c-2.29,1.25-6.29,1.1-8.93-.36l-9.63-5.29c-2.65-1.45-2.93-3.65-.65-4.91l10.92-6c2.29-1.25,6.29-1.1,8.93.36l9.63,5.29C295.74,185.94,296,188.14,293.74,189.4Z"/><path class="cls-35" d="M291.92,188.81,282,194.26c-2.08,1.15-5.71,1-8.11-.32l-8.76-4.81c-2.4-1.32-2.66-3.31-.58-4.45l9.92-5.45c2.08-1.15,5.71-1,8.11.32l8.75,4.81C293.74,185.68,294,187.67,291.92,188.81Z"/><path class="cls-36" d="M290.1,188.23l-8.92,4.9a8.44,8.44,0,0,1-7.29-.29L266,188.52c-2.15-1.19-2.39-3-.52-4l8.92-4.9a8.44,8.44,0,0,1,7.29.29l7.86,4.32C291.73,185.41,292,187.2,290.1,188.23Z"/><path class="cls-37" d="M288.28,187.65,280.36,192a7.53,7.53,0,0,1-6.47-.26l-7-3.84c-1.91-1.05-2.12-2.64-.46-3.55l7.91-4.35a7.51,7.51,0,0,1,6.48.25l7,3.84C289.73,185.14,289.93,186.74,288.28,187.65Z"/><path class="cls-38" d="M286.45,187.06l-6.91,3.8a6.54,6.54,0,0,1-5.65-.22l-6.11-3.35c-1.67-.92-1.85-2.31-.4-3.11l6.91-3.8a6.57,6.57,0,0,1,5.66.22l6.1,3.36C287.72,184.88,287.9,186.27,286.45,187.06Z"/><path class="cls-44" d="M289,185h0V175l-31.13-.28v9.94a1.31,1.31,0,0,0,0,.28h0a3.41,3.41,0,0,0,2,2.47l9,5c2.48,1.36,6.23,1.51,8.37.33l10.25-5.63A2.29,2.29,0,0,0,289,185Z"/><path class="cls-45" d="M287.57,176.89l-10.25,5.63c-2.14,1.18-5.89,1-8.37-.33l-9-5c-2.48-1.36-2.75-3.42-.6-4.6L269.55,167c2.15-1.18,5.9-1,8.38.33l9,5C289.44,173.65,289.71,175.71,287.57,176.89Z"/><ellipse class="cls-27" cx="268.09" cy="199.44" rx="13.1" ry="7.2"/><ellipse class="cls-28" cx="267.94" cy="198.91" rx="12.35" ry="6.79"/><path class="cls-29" d="M276,193.88c4.53,2.49,4.53,6.52,0,9s-11.88,2.49-16.41,0-4.53-6.52,0-9S271.47,191.39,276,193.88Z"/><path class="cls-30" d="M275.33,193.64c4.24,2.33,4.24,6.11,0,8.44a17.73,17.73,0,0,1-15.35,0c-4.23-2.33-4.23-6.11,0-8.44A17.73,17.73,0,0,1,275.33,193.64Z"/><path class="cls-31" d="M274.66,193.41c3.95,2.17,3.95,5.68,0,7.85a16.5,16.5,0,0,1-14.29,0c-3.95-2.17-3.95-5.68,0-7.85A16.5,16.5,0,0,1,274.66,193.41Z"/><path class="cls-32" d="M274,193.17c3.65,2,3.65,5.27,0,7.27a15.27,15.27,0,0,1-13.23,0c-3.66-2-3.66-5.26,0-7.27A15.27,15.27,0,0,1,274,193.17Z"/><path class="cls-33" d="M273.32,192.94c3.36,1.84,3.36,4.84,0,6.69a14.13,14.13,0,0,1-12.18,0c-3.36-1.85-3.36-4.85,0-6.69A14.06,14.06,0,0,1,273.32,192.94Z"/><path class="cls-34" d="M272.64,192.7c3.07,1.69,3.07,4.42,0,6.11a12.81,12.81,0,0,1-11.11,0c-3.07-1.69-3.07-4.42,0-6.11A12.81,12.81,0,0,1,272.64,192.7Z"/><path class="cls-35" d="M272,192.47c2.78,1.52,2.78,4,0,5.52a11.58,11.58,0,0,1-10.05,0c-2.78-1.52-2.78-4,0-5.52A11.58,11.58,0,0,1,272,192.47Z"/><path class="cls-36" d="M271.3,192.23c2.49,1.37,2.49,3.58,0,5a10.44,10.44,0,0,1-9,0c-2.48-1.37-2.48-3.58,0-5A10.44,10.44,0,0,1,271.3,192.23Z"/><path class="cls-37" d="M270.63,192c2.19,1.2,2.19,3.16,0,4.36a9.14,9.14,0,0,1-7.94,0c-2.2-1.2-2.2-3.16,0-4.36A9.14,9.14,0,0,1,270.63,192Z"/><path class="cls-38" d="M270,191.76c1.9,1.05,1.9,2.74,0,3.78a7.93,7.93,0,0,1-6.89,0c-1.9-1-1.9-2.73,0-3.78A8,8,0,0,1,270,191.76Z"/><path class="cls-46" d="M259.35,191.42v2.52a3.13,3.13,0,0,0,1.93,2.57,10.82,10.82,0,0,0,9.36,0,3.14,3.14,0,0,0,1.94-2.57h0v-2.52Z"/><path class="cls-47" d="M270.64,188.85c2.58,1.42,2.58,3.72,0,5.14a10.82,10.82,0,0,1-9.36,0c-2.58-1.42-2.58-3.72,0-5.14A10.82,10.82,0,0,1,270.64,188.85Z"/><path class="cls-43" d="M281.8,199.48a.33.33,0,0,1-.29-.15l-1.4-2.11a.29.29,0,0,1,0-.31.37.37,0,0,1,.29-.19l2.76-.17a.3.3,0,0,1,.31.14.29.29,0,0,1,0,.33l-1.35,2.29a.34.34,0,0,1-.29.17Zm-1.31-2.38,1.32,2,1.24-2.14Z"/><path class="cls-27" d="M359.34,159.13l-33.45,18.38c-7,3.85-19.26,3.37-27.36-1.08L269,160.21c-8.1-4.45-9-11.19-2-15l33.44-18.38c7-3.86,19.27-3.37,27.36,1.08l29.52,16.22C365.47,148.54,366.35,155.27,359.34,159.13Z"/><path class="cls-28" d="M355.93,158l-31.58,17.35c-6.62,3.64-18.18,3.19-25.83-1l-27.87-15.31c-7.64-4.21-8.47-10.56-1.85-14.2l31.58-17.36c6.62-3.64,18.18-3.18,25.83,1l27.87,15.32C361.73,148,362.56,154.4,355.93,158Z"/><path class="cls-29" d="M352.53,157l-29.71,16.33c-6.23,3.42-17.11,3-24.3-1l-26.23-14.41c-7.19-4-8-9.94-1.74-13.36l29.71-16.33c6.23-3.42,17.11-3,24.31,1l26.22,14.41C358,147.54,358.76,153.52,352.53,157Z"/><path class="cls-30" d="M349.13,155.86l-27.84,15.3c-5.84,3.21-16,2.81-22.78-.9l-24.57-13.5c-6.74-3.71-7.48-9.31-1.64-12.52l27.85-15.3c5.83-3.21,16-2.81,22.77.9l24.58,13.5C354.24,147.05,355,152.65,349.13,155.86Z"/><path class="cls-31" d="M345.73,154.77l-26,14.28c-5.44,3-15,2.62-21.25-.84l-22.92-12.6c-6.29-3.46-7-8.68-1.53-11.68l26-14.27c5.45-3,15-2.62,21.25.83l22.92,12.6C350.49,146.55,351.18,151.78,345.73,154.77Z"/><path class="cls-32" d="M342.33,153.68l-24.11,13.25c-5.06,2.78-13.89,2.43-19.72-.77l-21.28-11.7c-5.84-3.21-6.47-8.06-1.41-10.84l24.1-13.25c5.06-2.78,13.89-2.43,19.73.78l21.27,11.69C346.75,146.05,347.38,150.9,342.33,153.68Z"/><path class="cls-33" d="M338.93,152.59l-22.24,12.23c-4.67,2.56-12.81,2.24-18.2-.72l-19.63-10.79c-5.38-3-6-7.43-1.3-10l22.24-12.22c4.66-2.56,12.81-2.24,18.19.72l19.63,10.79C343,145.55,343.59,150,338.93,152.59Z"/><path class="cls-34" d="M335.53,151.51,315.15,162.7c-4.27,2.35-11.73,2.06-16.66-.65l-18-9.89c-4.94-2.71-5.47-6.81-1.2-9.16l20.37-11.19c4.27-2.35,11.74-2.06,16.67.66l18,9.88C339.26,145.06,339.8,149.16,335.53,151.51Z"/><path class="cls-35" d="M332.12,150.42l-18.5,10.17c-3.88,2.13-10.66,1.86-15.14-.6l-16.33-9c-4.48-2.47-5-6.19-1.09-8.32l18.51-10.18c3.88-2.13,10.65-1.86,15.13.6l16.34,9C335.52,144.56,336,148.29,332.12,150.42Z"/><path class="cls-36" d="M328.72,149.33l-16.64,9.14c-3.48,1.92-9.58,1.68-13.61-.53l-14.68-8.07c-4-2.22-4.47-5.57-1-7.48l16.64-9.15c3.49-1.92,9.58-1.67,13.61.54l14.68,8.07C331.77,144.06,332.21,147.41,328.72,149.33Z"/><path class="cls-37" d="M325.32,148.24l-14.77,8.12c-3.1,1.7-8.51,1.49-12.08-.48l-13-7.16c-3.57-2-4-4.94-.87-6.64L299.34,134c3.09-1.7,8.5-1.49,12.08.48l13,7.16C328,143.57,328.42,146.54,325.32,148.24Z"/><path class="cls-38" d="M321.92,147.15,309,154.24c-2.71,1.49-7.43,1.3-10.56-.41l-11.39-6.26c-3.12-1.72-3.46-4.32-.75-5.8l12.9-7.09c2.71-1.49,7.43-1.3,10.55.41l11.39,6.26C324.29,143.07,324.62,145.67,321.92,147.15Z"/><path class="cls-43" d="M340,149.25a.56.56,0,0,1-.47-.24l-2.3-3.45a.51.51,0,0,1,0-.52.57.57,0,0,1,.47-.3l4.52-.29a.51.51,0,0,1,.5.24.5.5,0,0,1,0,.54L340.51,149a.56.56,0,0,1-.49.28Zm-2.13-3.9,2.15,3.23,2-3.5Z"/><rect class="cls-43" x="329.81" y="153.95" width="5.66" height="0.62"/><path class="cls-48" d="M331.53,143.79h0v-8.67l-56.23-.52v8.68a2.9,2.9,0,0,0,0,.51h0c.11,1.56,1.35,3.18,3.68,4.46l16.32,9c4.48,2.46,11.25,2.73,15.13.6l18.5-10.17C330.8,146.63,331.64,145.24,331.53,143.79Z"/><path class="cls-49" d="M328.94,138.46l-18.5,10.16c-3.88,2.14-10.65,1.87-15.13-.59l-16.32-9c-4.48-2.46-5-6.19-1.09-8.32l18.5-10.16c3.88-2.13,10.65-1.87,15.13.59l16.32,9C332.33,132.61,332.81,136.33,328.94,138.46Z"/><ellipse class="cls-27" cx="441.35" cy="248.65" rx="44.22" ry="24.3"/><ellipse class="cls-28" cx="440.21" cy="248.22" rx="41.69" ry="22.91"/><ellipse class="cls-29" cx="439.07" cy="247.79" rx="39.17" ry="21.52"/><ellipse class="cls-30" cx="437.93" cy="247.36" rx="36.64" ry="20.14"/><ellipse class="cls-31" cx="436.79" cy="246.93" rx="34.11" ry="18.75"/><ellipse class="cls-32" cx="435.65" cy="246.5" rx="31.59" ry="17.36"/><ellipse class="cls-33" cx="434.51" cy="246.07" rx="29.06" ry="15.97"/><ellipse class="cls-34" cx="433.37" cy="245.64" rx="26.54" ry="14.58"/><ellipse class="cls-35" cx="432.23" cy="245.21" rx="24.01" ry="13.2"/><path class="cls-36" d="M446.28,236.43c8.39,4.61,8.39,12.08,0,16.69s-22,4.62-30.38,0-8.39-12.08,0-16.69S437.89,231.82,446.28,236.43Z"/><path class="cls-37" d="M443.35,237c7.4,4.07,7.4,10.66,0,14.73s-19.41,4.07-26.81,0-7.4-10.66,0-14.73S436,232.91,443.35,237Z"/><path class="cls-38" d="M440.42,237.53c6.42,3.53,6.42,9.24,0,12.77s-16.82,3.53-23.23,0-6.42-9.24,0-12.77S434,234,440.42,237.53Z"/><path class="cls-43" d="M479.23,228.38h-.08a.58.58,0,0,1-.39-.21l-2.4-3a.55.55,0,0,1,.11-.78l2.91-2.13a.63.63,0,0,1,.83.1l2.4,3a.56.56,0,0,1-.11.79l-2.91,2.12A.58.58,0,0,1,479.23,228.38Zm.48-5.64-2.86,2.13,2.41,2.93,2.83-2.11Z"/><path class="cls-43" d="M445.72,197.49l-1.51-2.31a.68.68,0,0,1,.25-1l2.67-1.58.33.51-2.67,1.58a.11.11,0,0,0-.05.13l1.51,2.31Z"/><rect class="cls-43" x="396.69" y="216.71" width="0.63" height="6.58"/><ellipse class="cls-27" cx="381.75" cy="230.92" rx="28.09" ry="15.44"/><ellipse class="cls-28" cx="381.03" cy="230.64" rx="26.49" ry="14.56"/><ellipse class="cls-29" cx="380.3" cy="230.37" rx="24.88" ry="13.67"/><ellipse class="cls-30" cx="379.58" cy="230.1" rx="23.28" ry="12.79"/><ellipse class="cls-31" cx="378.85" cy="229.82" rx="21.67" ry="11.91"/><ellipse class="cls-32" cx="378.13" cy="229.55" rx="20.07" ry="11.03"/><ellipse class="cls-33" cx="377.41" cy="229.27" rx="18.46" ry="10.15"/><ellipse class="cls-34" cx="376.68" cy="229" rx="16.86" ry="9.26"/><ellipse class="cls-35" cx="375.96" cy="228.73" rx="15.25" ry="8.38"/><path class="cls-36" d="M384.88,223.15c5.33,2.93,5.33,7.68,0,10.61s-14,2.93-19.3,0-5.33-7.68,0-10.61S379.55,220.22,384.88,223.15Z"/><path class="cls-37" d="M383,223.5c4.71,2.58,4.71,6.78,0,9.36s-12.33,2.58-17,0-4.7-6.78,0-9.36S378.32,220.92,383,223.5Z"/><path class="cls-38" d="M381.16,223.85c4.08,2.24,4.08,5.87,0,8.11a17,17,0,0,1-14.76,0c-4.07-2.24-4.07-5.87,0-8.11A17,17,0,0,1,381.16,223.85Z"/><path class="cls-50" d="M358.41,223.12v5.4c0,2,1.38,4,4.15,5.51,5.54,3.05,14.53,3.05,20.07,0,2.77-1.52,4.16-3.52,4.16-5.51h0v-5.4Z"/><path class="cls-51" d="M382.63,217.6c5.54,3.05,5.54,8,0,11s-14.53,3.05-20.07,0-5.54-8,0-11S377.09,214.56,382.63,217.6Z"/><path class="cls-52" d="M403.27,211v32.79c0,3.32,2.3,6.64,6.91,9.17,9.23,5.07,24.18,5.07,33.41,0,4.61-2.53,6.91-5.85,6.91-9.17h0V211Z"/><path class="cls-53" d="M443.59,201.77c9.22,5.07,9.22,13.29,0,18.36s-24.18,5.07-33.41,0-9.22-13.29,0-18.36S434.36,196.7,443.59,201.77Z"/><rect class="cls-43" x="263.01" y="212.36" width="6.85" height="0.75"/><ellipse class="cls-54" cx="244.8" cy="226.89" rx="35.44" ry="19.48"/><ellipse class="cls-55" cx="243.88" cy="226.54" rx="33.41" ry="18.36"/><ellipse class="cls-56" cx="242.97" cy="226.2" rx="31.39" ry="17.25"/><ellipse class="cls-57" cx="242.06" cy="225.85" rx="29.37" ry="16.14"/><ellipse class="cls-58" cx="241.14" cy="225.51" rx="27.34" ry="15.03"/><ellipse class="cls-59" cx="240.23" cy="225.16" rx="25.32" ry="13.91"/><ellipse class="cls-60" cx="239.31" cy="224.82" rx="23.29" ry="12.8"/><ellipse class="cls-61" cx="238.4" cy="224.47" rx="21.27" ry="11.69"/><ellipse class="cls-62" cx="237.49" cy="224.13" rx="19.24" ry="10.58"/><ellipse class="cls-63" cx="236.57" cy="223.78" rx="17.22" ry="9.46"/><path class="cls-64" d="M246.4,217.53c5.94,3.26,5.94,8.55,0,11.81s-15.55,3.26-21.48,0-5.94-8.55,0-11.81S240.47,214.27,246.4,217.53Z"/><path class="cls-65" d="M244.06,218c5.14,2.83,5.14,7.41,0,10.24s-13.48,2.82-18.63,0-5.14-7.41,0-10.24S238.91,215.15,244.06,218Z"/><path class="cls-66" d="M215.35,217.05v6.81c0,2.52,1.74,5,5.24,7,7,3.84,18.32,3.84,25.32,0,3.49-1.92,5.24-4.44,5.24-7h0v-6.81Z"/><path class="cls-67" d="M245.91,210.09c7,3.85,7,10.07,0,13.92s-18.33,3.84-25.32,0-7-10.07,0-13.92S238.91,206.25,245.91,210.09Z"/><ellipse class="cls-68" cx="103.19" cy="66.5" rx="69.86" ry="66.5"/><path class="cls-69" d="M180.18,121.75a1.89,1.89,0,1,0,2,1.89A1.94,1.94,0,0,0,180.18,121.75Z"/><path class="cls-69" d="M180.18,106.74a1.89,1.89,0,1,0,2,1.89A1.93,1.93,0,0,0,180.18,106.74Z"/><path class="cls-69" d="M180.18,91.72a1.89,1.89,0,1,0,2,1.89A1.94,1.94,0,0,0,180.18,91.72Z"/><path class="cls-69" d="M170.53,136.77a1.89,1.89,0,1,0,2,1.89A1.94,1.94,0,0,0,170.53,136.77Z"/><path class="cls-69" d="M170.53,121.75a1.89,1.89,0,1,0,2,1.89A1.94,1.94,0,0,0,170.53,121.75Z"/><path class="cls-69" d="M170.53,106.74a1.89,1.89,0,1,0,2,1.89A1.93,1.93,0,0,0,170.53,106.74Z"/><path class="cls-69" d="M170.53,91.72a1.89,1.89,0,1,0,2,1.89A1.94,1.94,0,0,0,170.53,91.72Z"/><path class="cls-69" d="M170.53,76.71a1.89,1.89,0,1,0,2,1.88A1.93,1.93,0,0,0,170.53,76.71Z"/><path class="cls-69" d="M160.89,151.79a1.89,1.89,0,1,0,2,1.88A1.93,1.93,0,0,0,160.89,151.79Z"/><path class="cls-69" d="M160.89,136.77a1.89,1.89,0,1,0,2,1.89A1.93,1.93,0,0,0,160.89,136.77Z"/><path class="cls-69" d="M160.89,121.75a1.89,1.89,0,1,0,2,1.89A1.93,1.93,0,0,0,160.89,121.75Z"/><path class="cls-69" d="M160.89,106.74a1.89,1.89,0,1,0,2,1.89A1.93,1.93,0,0,0,160.89,106.74Z"/><path class="cls-69" d="M160.89,91.72a1.89,1.89,0,1,0,2,1.89A1.93,1.93,0,0,0,160.89,91.72Z"/><path class="cls-69" d="M160.89,76.71a1.89,1.89,0,1,0,2,1.88A1.93,1.93,0,0,0,160.89,76.71Z"/><path class="cls-69" d="M160.89,61.69a1.89,1.89,0,1,0,2,1.89A1.93,1.93,0,0,0,160.89,61.69Z"/><path class="cls-69" d="M151.24,151.79a1.89,1.89,0,1,0,2,1.88A1.93,1.93,0,0,0,151.24,151.79Z"/><path class="cls-69" d="M151.24,136.77a1.89,1.89,0,1,0,2,1.89A1.94,1.94,0,0,0,151.24,136.77Z"/><path class="cls-69" d="M151.24,121.75a1.89,1.89,0,1,0,2,1.89A1.94,1.94,0,0,0,151.24,121.75Z"/><path class="cls-69" d="M151.24,106.74a1.89,1.89,0,1,0,2,1.89A1.93,1.93,0,0,0,151.24,106.74Z"/><path class="cls-69" d="M151.24,91.72a1.89,1.89,0,1,0,2,1.89A1.94,1.94,0,0,0,151.24,91.72Z"/><ellipse class="cls-69" cx="151.24" cy="78.59" rx="1.98" ry="1.89"/><path class="cls-69" d="M151.24,61.69a1.89,1.89,0,1,0,2,1.89A1.94,1.94,0,0,0,151.24,61.69Z"/><path class="cls-69" d="M141.6,151.79a1.89,1.89,0,1,0,2,1.88A1.93,1.93,0,0,0,141.6,151.79Z"/><path class="cls-69" d="M141.6,136.77a1.89,1.89,0,1,0,2,1.89A1.93,1.93,0,0,0,141.6,136.77Z"/><path class="cls-69" d="M141.6,121.75a1.89,1.89,0,1,0,2,1.89A1.93,1.93,0,0,0,141.6,121.75Z"/><path class="cls-69" d="M141.6,106.74a1.89,1.89,0,1,0,2,1.89A1.93,1.93,0,0,0,141.6,106.74Z"/><path class="cls-69" d="M141.6,91.72a1.89,1.89,0,1,0,2,1.89A1.93,1.93,0,0,0,141.6,91.72Z"/><path class="cls-69" d="M141.6,76.71a1.89,1.89,0,1,0,2,1.88A1.93,1.93,0,0,0,141.6,76.71Z"/><path class="cls-69" d="M141.6,61.69a1.89,1.89,0,1,0,2,1.89A1.93,1.93,0,0,0,141.6,61.69Z"/><path class="cls-69" d="M132,151.79a1.89,1.89,0,1,0,2,1.88A1.93,1.93,0,0,0,132,151.79Z"/><path class="cls-69" d="M132,136.77a1.89,1.89,0,1,0,2,1.89A1.94,1.94,0,0,0,132,136.77Z"/><path class="cls-69" d="M132,121.75a1.89,1.89,0,1,0,2,1.89A1.94,1.94,0,0,0,132,121.75Z"/><path class="cls-69" d="M132,106.74a1.89,1.89,0,1,0,2,1.89A1.93,1.93,0,0,0,132,106.74Z"/><path class="cls-69" d="M132,91.72a1.89,1.89,0,1,0,2,1.89A1.94,1.94,0,0,0,132,91.72Z"/><path class="cls-69" d="M132,76.71a1.89,1.89,0,1,0,2,1.88A1.93,1.93,0,0,0,132,76.71Z"/><path class="cls-69" d="M132,61.69a1.89,1.89,0,1,0,2,1.89A1.94,1.94,0,0,0,132,61.69Z"/><path class="cls-69" d="M122.31,163.32a1.89,1.89,0,1,0,2,1.88A1.94,1.94,0,0,0,122.31,163.32Z"/><path class="cls-69" d="M122.31,151.79a1.89,1.89,0,1,0,2,1.88A1.94,1.94,0,0,0,122.31,151.79Z"/><path class="cls-69" d="M122.31,136.77a1.89,1.89,0,1,0,2,1.89A1.94,1.94,0,0,0,122.31,136.77Z"/><path class="cls-69" d="M122.31,121.75a1.89,1.89,0,1,0,2,1.89A1.94,1.94,0,0,0,122.31,121.75Z"/><path class="cls-69" d="M122.31,106.74a1.89,1.89,0,1,0,2,1.89A1.94,1.94,0,0,0,122.31,106.74Z"/><path class="cls-69" d="M122.31,91.72a1.89,1.89,0,1,0,2,1.89A1.94,1.94,0,0,0,122.31,91.72Z"/><path class="cls-69" d="M122.31,76.71a1.89,1.89,0,1,0,2,1.88A1.94,1.94,0,0,0,122.31,76.71Z"/><path class="cls-69" d="M122.31,61.69a1.89,1.89,0,1,0,2,1.89A1.94,1.94,0,0,0,122.31,61.69Z"/><path class="cls-69" d="M122.31,49.55a1.89,1.89,0,1,0,2,1.89A1.94,1.94,0,0,0,122.31,49.55Z"/><path class="cls-69" d="M112.42,49.55a1.89,1.89,0,1,0,2,1.89A1.94,1.94,0,0,0,112.42,49.55Z"/><path class="cls-69" d="M132.13,49.55a1.89,1.89,0,1,0,2,1.89A1.94,1.94,0,0,0,132.13,49.55Z"/><path class="cls-69" d="M112.42,163.32a1.89,1.89,0,1,0,2,1.88A1.93,1.93,0,0,0,112.42,163.32Z"/><path class="cls-69" d="M132.13,163.32a1.89,1.89,0,1,0,2,1.88A1.94,1.94,0,0,0,132.13,163.32Z"/><path class="cls-69" d="M112.66,151.79a1.89,1.89,0,1,0,2,1.88A1.93,1.93,0,0,0,112.66,151.79Z"/><path class="cls-69" d="M112.66,136.77a1.89,1.89,0,1,0,2,1.89A1.94,1.94,0,0,0,112.66,136.77Z"/><path class="cls-69" d="M112.66,121.75a1.89,1.89,0,1,0,2,1.89A1.94,1.94,0,0,0,112.66,121.75Z"/><path class="cls-69" d="M112.66,106.74a1.89,1.89,0,1,0,2,1.89A1.93,1.93,0,0,0,112.66,106.74Z"/><path class="cls-69" d="M112.66,91.72a1.89,1.89,0,1,0,2,1.89A1.94,1.94,0,0,0,112.66,91.72Z"/><path class="cls-69" d="M112.66,76.71a1.89,1.89,0,1,0,2,1.88A1.93,1.93,0,0,0,112.66,76.71Z"/><path class="cls-69" d="M112.66,61.69a1.89,1.89,0,1,0,2,1.89A1.94,1.94,0,0,0,112.66,61.69Z"/><path class="cls-69" d="M103,151.79a1.89,1.89,0,1,0,2,1.88A1.93,1.93,0,0,0,103,151.79Z"/><path class="cls-69" d="M103,136.77a1.89,1.89,0,1,0,2,1.89A1.94,1.94,0,0,0,103,136.77Z"/><path class="cls-69" d="M103,121.75a1.89,1.89,0,1,0,2,1.89A1.94,1.94,0,0,0,103,121.75Z"/><path class="cls-69" d="M103,106.74a1.89,1.89,0,1,0,2,1.89A1.93,1.93,0,0,0,103,106.74Z"/><path class="cls-69" d="M103,91.72a1.89,1.89,0,1,0,2,1.89A1.94,1.94,0,0,0,103,91.72Z"/><path class="cls-69" d="M103,76.71a1.89,1.89,0,1,0,2,1.88A1.93,1.93,0,0,0,103,76.71Z"/><path class="cls-69" d="M103,61.69a1.89,1.89,0,1,0,2,1.89A1.94,1.94,0,0,0,103,61.69Z"/><path class="cls-69" d="M93.37,151.79a1.89,1.89,0,1,0,2,1.88A1.93,1.93,0,0,0,93.37,151.79Z"/><path class="cls-69" d="M93.37,136.77a1.89,1.89,0,1,0,2,1.89A1.93,1.93,0,0,0,93.37,136.77Z"/><path class="cls-69" d="M93.37,121.75a1.89,1.89,0,1,0,2,1.89A1.93,1.93,0,0,0,93.37,121.75Z"/><path class="cls-69" d="M93.37,106.74a1.89,1.89,0,1,0,2,1.89A1.93,1.93,0,0,0,93.37,106.74Z"/><path class="cls-69" d="M93.37,91.72a1.89,1.89,0,1,0,2,1.89A1.93,1.93,0,0,0,93.37,91.72Z"/><path class="cls-69" d="M93.37,76.71a1.89,1.89,0,1,0,2,1.88A1.93,1.93,0,0,0,93.37,76.71Z"/><path class="cls-69" d="M93.37,61.69a1.89,1.89,0,1,0,2,1.89A1.93,1.93,0,0,0,93.37,61.69Z"/><path class="cls-69" d="M83.72,151.79a1.89,1.89,0,1,0,2,1.88A1.93,1.93,0,0,0,83.72,151.79Z"/><path class="cls-69" d="M83.72,136.77a1.89,1.89,0,1,0,2,1.89A1.94,1.94,0,0,0,83.72,136.77Z"/><path class="cls-69" d="M83.72,121.75a1.89,1.89,0,1,0,2,1.89A1.94,1.94,0,0,0,83.72,121.75Z"/><path class="cls-69" d="M83.72,106.74a1.89,1.89,0,1,0,2,1.89A1.93,1.93,0,0,0,83.72,106.74Z"/><path class="cls-69" d="M83.72,91.72a1.89,1.89,0,1,0,2,1.89A1.94,1.94,0,0,0,83.72,91.72Z"/><path class="cls-69" d="M83.72,76.71a1.89,1.89,0,1,0,2,1.88A1.93,1.93,0,0,0,83.72,76.71Z"/><path class="cls-69" d="M83.72,61.69a1.89,1.89,0,1,0,2,1.89A1.94,1.94,0,0,0,83.72,61.69Z"/><path class="cls-69" d="M74.08,136.77a1.89,1.89,0,1,0,2,1.89A1.93,1.93,0,0,0,74.08,136.77Z"/><path class="cls-69" d="M74.08,121.75a1.89,1.89,0,1,0,2,1.89A1.93,1.93,0,0,0,74.08,121.75Z"/><path class="cls-69" d="M74.08,106.74a1.89,1.89,0,1,0,2,1.89A1.93,1.93,0,0,0,74.08,106.74Z"/><path class="cls-69" d="M74.08,91.72a1.89,1.89,0,1,0,2,1.89A1.93,1.93,0,0,0,74.08,91.72Z"/><path class="cls-69" d="M74.08,76.71a1.89,1.89,0,1,0,2,1.88A1.93,1.93,0,0,0,74.08,76.71Z"/><path class="cls-69" d="M64.43,121.75a1.89,1.89,0,1,0,2,1.89A1.94,1.94,0,0,0,64.43,121.75Z"/><path class="cls-69" d="M64.43,106.74a1.89,1.89,0,1,0,2,1.89A1.93,1.93,0,0,0,64.43,106.74Z"/><path class="cls-69" d="M64.43,91.72a1.89,1.89,0,1,0,2,1.89A1.94,1.94,0,0,0,64.43,91.72Z"/></g></g></g></svg>