<svg xmlns="http://www.w3.org/2000/svg" xmlns:xlink="http://www.w3.org/1999/xlink" viewBox="0 0 553.87 735.84"><defs><style>.cls-1,.cls-12,.cls-13,.cls-14,.cls-18{fill:none;}.cls-2{fill:#fff;}.cls-3{clip-path:url(#clip-path);}.cls-19,.cls-20,.cls-4{fill:#587cf8;}.cls-4{opacity:0.2;}.cls-5{fill:#b4f9b4;}.cls-6{fill:#fecad0;}.cls-7{fill:#feb160;}.cls-8{fill:#212b6b;}.cls-9{fill:#171c51;}.cls-10{fill:#c05142;}.cls-11{fill:#ee84aa;}.cls-12{stroke:#e45e8e;stroke-miterlimit:9;}.cls-12,.cls-13,.cls-18{stroke-linecap:round;}.cls-12,.cls-18{stroke-width:0.53px;}.cls-13,.cls-18{stroke:#171c51;stroke-linejoin:round;}.cls-13,.cls-14{stroke-width:0.79px;}.cls-14{stroke:#587cf8;stroke-miterlimit:10;}.cls-15{fill:#96a4cd;}.cls-16{fill:#e6eafd;}.cls-17{fill:#7389bb;}.cls-19{font-size:2.97px;font-family:Roboto-Medium, Roboto;font-weight:500;}</style><clipPath id="clip-path"><rect class="cls-1" width="399" height="252"/></clipPath></defs><title>Asset 10</title><g id="Layer_2" data-name="Layer 2"><g id="Layer_1-2" data-name="Layer 1"><rect class="cls-2" width="399" height="252"/><g class="cls-3"><path class="cls-4" d="M504.25,258.43S408.9-12.57,223.19,36.35,87,316.88,87,316.88Z"/><ellipse class="cls-5" cx="354.48" cy="21.59" rx="1.22" ry="1.16"/><ellipse class="cls-5" cx="122.41" cy="179.88" rx="0.81" ry="0.77"/><polyline class="cls-6" points="318.8 621.92 322.01 706.69 332.43 721.28 354.24 711.33 353.92 627.1"/><path class="cls-7" d="M275.7,731.47,322.62,701l10.22,11.89,21.4-1.52L358,730.11l-80.7,5.72A2.38,2.38,0,0,1,275.7,731.47Z"/><polyline class="cls-6" points="468.46 611.31 502.96 693.86 494.81 709.78 471.75 703 434.47 621.39"/><path class="cls-7" d="M552.46,711.85l-51-23.57-8.34,13.2L471.75,703l-.91,19.11,80.7-5.72A2.37,2.37,0,0,0,552.46,711.85Z"/><path class="cls-8" d="M300.79,343.48,313,663.42l46.14,0,2.65-200.8,84.45,200.77,39.84-15.11S414.7,435.09,406.19,404.52s-6.62-47-18-68Z"/><path class="cls-9" d="M321.5,126.57c-13.48-2.5-22.16,16.66-17.36,39.32s-14.2,46-11.18,55.21,49.89,19,80.56,16.55,39.26-15.89,32.91-24.59-16-16.92-17.31-44.41S364.07,91.4,321.5,126.57Z"/><path class="cls-10" d="M420.44,261.69l-17.28,13.92-1.63,1.3-12.89,10.38,1.77,51.57-8.31.44-1.72.08-24,1.23-1.71.11-24,1.23L329,342l-24,1.23-1.72.08-2.45.14s.1-12.64-5.13-30.7-.77-31-.77-31L268,261.7l11.51-20.11a39,39,0,0,1,15.05-14.73c.55-.31,1.09-.6,1.66-.87a37.81,37.81,0,0,1,5.7-2.32L319.7,218l1-.32.71-.22,6-2,17.82-1.21,1.72-.12,19.42-1.32,4.71,2,1.78.74,0,0,16.93,7a39.61,39.61,0,0,1,8,4.42c.62.42,1.24.88,1.83,1.36a38,38,0,0,1,10.21,12.53Z"/><path class="cls-2" d="M372.9,215.52c-4.55,10.75-18.14,17.79-35.46,17.93-14.53.1-17-9-16.77-15.82l6.74-2.18,39-2.65Z"/><path class="cls-6" d="M366.37,212.8s-6.11,14-24.29,15.33-14.67-12.68-14.67-12.68l5-2-.93-8.44-1.39-12.3,30.28-11.17a16.72,16.72,0,0,0-1,5.15c-.74,9.43,2,24.72,2,24.72Z"/><path class="cls-11" d="M360.4,181.57a16.72,16.72,0,0,0-1,5.15s0,0,0,0C351.9,204,337.29,205.27,331.51,205l-1.39-12.3Z"/><path class="cls-6" d="M323.1,139.59c3.93,14.32,37.24,22.06,39.67,23.56,1.42.87,2,3.15,2.3,4.88a.36.36,0,0,0,.7.05c.66-2.2,2.08-5.38,4.83-5.89,4.26-.8,8.81,4.08,6.82,10.48s-12.08,3.8-12.08,3.8-6.62,19.19-25,21-23.57-12.8-22.86-22,.24-13.79-1-19.13S322.07,146.67,323.1,139.59Z"/><path class="cls-12" d="M372.3,165.66c-1.51.54-2.93,4.68-2.1,6.52"/><path d="M338.66,168.93a1.72,1.72,0,0,0,1.67,1.73,1.7,1.7,0,0,0,1.4-1.95,1.57,1.57,0,1,0-3.07.22Z"/><path d="M318.87,168.87a1.56,1.56,0,1,0,1.39-2A1.69,1.69,0,0,0,318.87,168.87Z"/><path class="cls-13" d="M350.58,159.51a8.46,8.46,0,0,0-9.95-.47"/><path class="cls-13" d="M320.65,161.46s3.52-4.28,9.91-1"/><path class="cls-14" d="M331.45,170.31a7.9,7.9,0,1,1-8.43-7A7.76,7.76,0,0,1,331.45,170.31Z"/><path class="cls-14" d="M353.29,168.76a7.68,7.68,0,0,1-7.31,8.07,7.76,7.76,0,0,1-8.44-7,7.9,7.9,0,0,1,15.75-1.12Z"/><path class="cls-14" d="M331.1,168.58s3.1-3.29,6.54-.46"/><path class="cls-15" d="M294.66,343.17l-76.4,5.41h0a2.79,2.79,0,0,1-2.93-1.73l-20.62-55.56a2.64,2.64,0,0,1,1.72-3.41l.93-.32h0a.13.13,0,0,1,.08,0l76.42-5.41Z"/><path class="cls-16" d="M247,318.09a6,6,0,1,1-6.36-5.24A5.86,5.86,0,0,1,247,318.09Z"/><path class="cls-17" d="M292.57,343.32l64.82-4.59A.67.67,0,0,0,358,338l-.36-4.94a.69.69,0,0,0-.74-.62l-64.82,4.6a.66.66,0,0,0-.63.71l.36,4.94A.68.68,0,0,0,292.57,343.32Z"/><path class="cls-17" d="M270.55,284.06l21.6,58.21a.79.79,0,0,0,1,.46l4.72-1.61a.74.74,0,0,0,.48-1l-21.6-58.22a.8.8,0,0,0-1-.45l-4.72,1.6A.76.76,0,0,0,270.55,284.06Z"/><path class="cls-6" d="M454.59,348.17a23.76,23.76,0,0,1-7.82,19.33,26.35,26.35,0,0,1-30.37,3.41L371.84,346s-22.75,6.48-33.22,6.31-22-4.63-22.19-6.67,41.39-9.21,39.29-10.7-20.84-.33-21.39-4.17,4.08-5.48,11.86-6.53,18,2,18,2l42.94,2.62-14.58-32.76-3.95-8.85,31.8-25.6,2.68,6.59,29.8,72.84A22.93,22.93,0,0,1,454.59,348.17Z"/><polygon class="cls-11" points="420.44 261.69 423.12 268.28 392.58 296.14 388.63 287.29 420.44 261.69"/><line class="cls-12" x1="407.16" y1="328.89" x2="425.52" y2="329.94"/><path class="cls-9" d="M306.66,339.17a1,1,0,1,1-1.07-.89A1,1,0,0,1,306.66,339.17Z"/><path class="cls-9" d="M310.72,338.88a1,1,0,0,1-.93,1,1,1,0,1,1,.93-1Z"/><path class="cls-15" d="M362.48,674.91l-51.81,2a1.51,1.51,0,0,1-1.6-1.42l-.55-14.06A1.5,1.5,0,0,1,310,659.9l51.8-2a1.51,1.51,0,0,1,1.6,1.41l.55,14.07A1.51,1.51,0,0,1,362.48,674.91Z"/><path class="cls-15" d="M493.65,654.9l-48.48,17.67a1.56,1.56,0,0,1-2-.85L438,658.57a1.46,1.46,0,0,1,.9-1.9L487.33,639a1.56,1.56,0,0,1,2,.85L494.55,653A1.46,1.46,0,0,1,493.65,654.9Z"/><line class="cls-18" x1="345.44" y1="421.86" x2="371.63" y2="485.97"/><path class="cls-18" d="M302.54,310.83c12.06,9.16,32.17,9.22,32.17,9.22"/><line class="cls-18" x1="388.64" y1="287.29" x2="372.46" y2="265.09"/><path class="cls-18" d="M294.89,281.75c5.32-12.19,5.43-27.53,5.43-27.53"/><ellipse class="cls-5" cx="264.53" cy="37.24" rx="1.77" ry="1.68"/><ellipse class="cls-5" cx="234" cy="26.51" rx="0.71" ry="0.67"/><ellipse class="cls-5" cx="209.27" cy="37.92" rx="0.71" ry="0.67"/><text class="cls-19" transform="translate(153.82 220.22) scale(1.05 1)">100</text><text class="cls-19" transform="translate(153.82 230.84) scale(1.05 1)">1000</text><text class="cls-19" transform="translate(105.82 198.38) scale(1.05 1)">300</text><text class="cls-19" transform="translate(57.74 159.46) scale(1.05 1)">150</text><text class="cls-19" transform="translate(81.83 40.91) scale(1.05 1)">150</text><text class="cls-19" transform="translate(33.42 106.45) scale(1.05 1)">450</text><text class="cls-19" transform="translate(67.92 173.86) scale(1.05 1)">200</text><text class="cls-19" transform="translate(69.83 52.31) scale(1.05 1)">200</text><text class="cls-19" transform="translate(195.62 205.57) scale(1.05 1)">150</text><text class="cls-19" transform="translate(241.94 174.63) scale(1.05 1)">300</text><text class="cls-19" transform="translate(241.94 45.48) scale(1.05 1)">300</text><text class="cls-19" transform="translate(272.33 110.21) scale(1.05 1)">600</text><text class="cls-19" transform="translate(225.87 185.25) scale(1.05 1)">100</text><text class="cls-19" transform="translate(225.99 37.11) scale(1.05 1)">100</text><text class="cls-19" transform="translate(175.43 21.92) scale(1.05 1)">300</text><text class="cls-19" transform="translate(122.91 21.92) scale(1.05 1)">120</text><text class="cls-19" transform="translate(102.76 21.92) scale(1.05 1)">80</text><path class="cls-20" d="M266.62,75.1V51.53h-48V28.74H193.81V29h-32v-.24H97V59.13H49V90.29h1.64v-15H65.74L73.83,83,82,75.23,81.68,75l-7.85,7.46L65.91,74.9H50.65V65.72h2.54v6.47a.31.31,0,0,0,.62,0V65.72h1.35l.6,6.5a.3.3,0,0,0,.3.27h0a.29.29,0,0,0,.28-.31l-.59-6.45h1.93L57,72.16a.29.29,0,0,0,.27.32h0a.31.31,0,0,0,.31-.27l.7-6.5h1.35v6.47a.31.31,0,0,0,.62,0V65.72h1.35l.6,6.5a.3.3,0,0,0,.3.27h0a.29.29,0,0,0,.28-.31l-.59-6.45H64.2l-.69,6.44a.29.29,0,0,0,.27.32h0a.31.31,0,0,0,.31-.27l.7-6.5h1.35v6.47a.31.31,0,0,0,.62,0V65.72h1.35l.6,6.5a.3.3,0,0,0,.3.27h0a.29.29,0,0,0,.28-.31l-.59-6.45h1.93L70,72.16a.29.29,0,0,0,.27.32h0a.31.31,0,0,0,.31-.27l.7-6.5h1.35v6.47a.31.31,0,0,0,.62,0V65.72h1.35l.6,6.5a.3.3,0,0,0,.3.27h0a.29.29,0,0,0,.28-.31l-.59-6.45h1.93l-.69,6.44a.29.29,0,0,0,.27.32h0a.31.31,0,0,0,.3-.27l.7-6.5h1.35v6.47a.31.31,0,0,0,.62,0V65.72h1.35l.6,6.5a.3.3,0,0,0,.3.27h0a.29.29,0,0,0,.28-.31l-.59-6.45h1.93L83,72.16a.29.29,0,0,0,.27.32h0a.31.31,0,0,0,.3-.27l.7-6.5h1.35v6.47a.31.31,0,0,0,.62,0V65.72h1.35l.6,6.5a.3.3,0,0,0,.3.27h0a.29.29,0,0,0,.28-.31l-.59-6.45h1.93l-.69,6.44a.29.29,0,0,0,.27.32h0a.31.31,0,0,0,.3-.27l.7-6.5h1.35v6.47a.31.31,0,0,0,.62,0V65.72H94.1l.6,6.5a.3.3,0,0,0,.3.27h0a.29.29,0,0,0,.28-.31l-.59-6.45h1.93L96,72.16a.29.29,0,0,0,.27.32h0a.31.31,0,0,0,.3-.27l.7-6.5h1.35v6.47a.31.31,0,0,0,.62,0V65.72h1.35l.6,6.5a.3.3,0,0,0,.3.27h0a.29.29,0,0,0,.28-.31l-.59-6.45h1.93l-.69,6.44a.29.29,0,0,0,.27.32h0a.31.31,0,0,0,.3-.27l.7-6.5h1.35v6.47a.31.31,0,0,0,.62,0V65.72h1.35l.6,6.5a.3.3,0,0,0,.3.27h0a.29.29,0,0,0,.28-.31l-.59-6.45h1.93l-.69,6.44a.29.29,0,0,0,.27.32h0a.31.31,0,0,0,.3-.27l.7-6.5H113V74.9h-7.26l-7.92,7.52L90,75l-.29.27L97.82,83l8.09-7.68H113v8.18h8v49.1a11.87,11.87,0,0,0-6.69,2.7c-2.12,1.89-3.2,4.65-3.2,8.2v.19H121v6.63H106.12v-7.06H98V115.05a2.48,2.48,0,0,0-2.7-2.16h-27a2.48,2.48,0,0,0-2.7,2.16v28.18H57.53v7.06H50.65v-6.82h-.26V120.68h.26v-7.6h-.26V90.29h-.2v22.79h-.72V90.29h-.21v22.79H49v7.6h.25v22.79H49v8.37H81v38h8.81v-.24h16v-.2h-16v-.68h16v-.2h-16v-.24H82.64V151.84h38.84l3.6,3.42a10.67,10.67,0,0,0-2.73,6.4c-.09,2.77,1.2,5.45,3.84,8l.15.14,7-6.65,3.66,3.48v21.69h-7.18v.24h-16v-.24h-8v1.56h8v-.24h16v.24H137v22.79h41.63v-15.2h40V167h15.18v-.24h16.63v-.2H233.81v-.68h16.63v-.2H250V151.26H265.6v14.81H249.81v.38H266v-23h-.41v7.4H250v-22.4h15.23v15.65h.2V120.68h.73v23.44h.2V120.68h.25V97.89h-.25V75.1ZM49.47,120.68h.72v22.79h-.72Zm56.24,22.94v6.67H98v-6.67ZM68.32,113.28h27a2.08,2.08,0,0,1,2.29,1.77v24.43H66V115.05A2.08,2.08,0,0,1,68.32,113.28ZM66,139.87H97.62v10.42H66V139.87Zm-8.09,3.75h7.68v6.67H57.94Zm55.88,45.77v-.68h16v.68Zm80-160.22v.69h-32v-.69Zm-84.5,1.12H113V59.13h-3.69Zm-5.34,0h3.7V59.13H104Zm-5.33,0h3.7V59.13h-3.7Zm-48,35V60.68h2.54v4.65Zm3.16,0V60.68h.89l.43,4.65Zm1.93,0-.42-4.65h2.94l-.5,4.65Zm2.63,0,.5-4.65h.81v4.65Zm1.93,0V60.68h.89l.43,4.65Zm1.93,0-.42-4.65h2.94l-.5,4.65Zm2.63,0,.5-4.65h.81v4.65Zm1.93,0V60.68h.89l.43,4.65Zm1.93,0-.42-4.65h2.94l-.5,4.65Zm2.63,0,.5-4.65h.81v4.65Zm1.93,0V60.68h.89l.43,4.65Zm1.93,0-.42-4.65h2.94l-.5,4.65Zm2.63,0,.5-4.65h.81v4.65Zm1.93,0V60.68h.89l.43,4.65Zm1.93,0-.42-4.65h2.94l-.5,4.65Zm2.63,0,.5-4.65h.81v4.65Zm1.93,0V60.68h.89l.43,4.65Zm1.93,0-.42-4.65h2.94l-.5,4.65Zm2.63,0,.5-4.65h.81v4.65Zm1.93,0V60.68h.89l.43,4.65Zm1.93,0-.42-4.65H97.2l-.5,4.65Zm2.63,0,.5-4.65h.81v4.65Zm1.93,0V60.68h.89l.43,4.65Zm1.93,0-.42-4.65h2.94l-.5,4.65Zm2.63,0,.5-4.65h.81v4.65Zm1.93,0V60.68h.89l.43,4.65Zm1.93,0-.42-4.65h2.94l-.5,4.65Zm2.63,0,.51-4.65H113v4.65Zm4.35-4.65V30.29H137v6.82h0v.2h11.12c0,3.34-1.07,5.93-3.07,7.72-3.24,2.89-8,2.65-8,2.64l0,.2h0v.19h0V59.9h.25V75.1H137v6.82H114.64ZM137.46,75.1V59.9h.72V75.1Zm1.18,8.37v-.58h7v22.4h-23V83.47Zm47-.58v22.4H182V82.89Zm-4,22.4H178V82.89h3.59Zm-4,0H174V82.89h3.59Zm-4,0H170V82.89h3.59Zm-4,0H166V82.89h3.59Zm-4,0H162V82.89h3.59Zm-4,0H158V82.89h3.59Zm-4,0H154V82.89h3.59Zm-4,0H150V82.89h3.59Zm-4,0H146V82.89h3.59Zm-27,11.78h23v3.41h-23Zm23-.38h-23v-3.41h23Zm0-3.8h-23v-3.41h23Zm0-3.8h-23v-3.41h23Zm31.39,102H138.64v-3.52H177Zm0-5.07H138.64v-3.51H177Zm0-5.06H138.64v-3.52H177Zm40-5.07H138.64V167H162V155c3.59,0,6.41,1.07,8.39,3.07a12.5,12.5,0,0,1,3.2,8.2c0,.47,0,.75,0,.76H174s0-.29,0-.76a12.5,12.5,0,0,1,3.2-8.2c2-2,4.8-3,8.39-3.07v12h8.2v-1.56H186V154.63h-.21c-3.8,0-6.79,1.08-8.89,3.2a11.87,11.87,0,0,0-3.1,6.46,12,12,0,0,0-3.11-6.46c-2.1-2.12-5.09-3.2-8.89-3.2h-.21v10.85H138.16l-3.85-3.65h0l-.11-.11-7.86,7.47c-2.46-2.39-3.66-4.92-3.58-7.52.14-4.23,3.68-7.24,3.71-7.27l-.27-.29h0l-3.56-3.38v-7.27h0v-.19H111.52c0-3.34,1.07-5.94,3.07-7.73,3.24-2.89,8-2.64,8-2.64l0-.2h0v-.19h0V120.87H146V105.68h40V82.5H138.64V75.1h-.26V59.9h.26V48a11.73,11.73,0,0,0,6.69-2.7c2.13-1.89,3.2-4.65,3.2-8.2v-.19h-9.89V30.29h23.18v-.24h32v.24H217V132.52h0v.19h0l0,.2c.05,0,4.79-.25,8,2.64,2,1.79,3,4.39,3.07,7.73H217v.19h0v22h-7.18v.24h-16v.2h16v.68h-16v.2h16V167H217Zm1.64-44.61h15v14.22h-15Zm31,14.46H234V151.26H249.6Zm-31-14.85v-7.21h9.89v-.19c0-3.55-1.07-6.31-3.2-8.2a11.87,11.87,0,0,0-6.69-2.7V53.08H265v22h.25V97.69H249.6v53.18Zm46.36-38H250V98.08h15Zm.25,15.19H250v-14.8h15v7.4h.25Zm.93-30.19h-.73V75.1h.73Z"/><path class="cls-20" d="M161.51,48a2.85,2.85,0,1,0-3-2.84A2.92,2.92,0,0,0,161.51,48Zm0-5.3a2.46,2.46,0,1,1-2.59,2.46A2.53,2.53,0,0,1,161.51,42.69Z"/><path class="cls-20" d="M148.92,54.25a2.85,2.85,0,1,0,3,2.85A2.93,2.93,0,0,0,148.92,54.25Zm0,5.31a2.46,2.46,0,1,1,2.59-2.46A2.53,2.53,0,0,1,148.92,59.56Z"/><path class="cls-20" d="M206.71,60a2.85,2.85,0,1,0-3-2.85A2.93,2.93,0,0,0,206.71,60Zm0-5.31a2.46,2.46,0,1,1-2.59,2.46A2.53,2.53,0,0,1,206.71,54.64Z"/><path class="cls-20" d="M177.5,48a2.85,2.85,0,1,0-3-2.84A2.92,2.92,0,0,0,177.5,48Zm0-5.3a2.46,2.46,0,1,1-2.58,2.46A2.53,2.53,0,0,1,177.5,42.69Z"/><path class="cls-20" d="M193.5,48a2.85,2.85,0,1,0-3-2.84A2.92,2.92,0,0,0,193.5,48Zm0-5.3a2.46,2.46,0,1,1-2.59,2.46A2.53,2.53,0,0,1,193.5,42.69Z"/><path class="cls-20" d="M161.51,67.38a2.85,2.85,0,1,0,3,2.85A2.93,2.93,0,0,0,161.51,67.38Zm0,5.31a2.46,2.46,0,1,1,2.59-2.46A2.53,2.53,0,0,1,161.51,72.69Z"/><path class="cls-20" d="M177.5,67.38a2.85,2.85,0,1,0,3,2.85A2.93,2.93,0,0,0,177.5,67.38Zm0,5.31a2.46,2.46,0,1,1,2.59-2.46A2.53,2.53,0,0,1,177.5,72.69Z"/><path class="cls-20" d="M190.5,70.23a3,3,0,1,0,3-2.85A2.93,2.93,0,0,0,190.5,70.23Zm5.59,0a2.59,2.59,0,1,1-2.59-2.46A2.53,2.53,0,0,1,196.09,70.23Z"/><path class="cls-20" d="M201.71,57.69a8,8,0,0,0-8.21-7.79h-32a7.8,7.8,0,1,0,0,15.58h32A8,8,0,0,0,201.71,57.69Zm-48,0a7.62,7.62,0,0,1,7.8-7.4h32a7.41,7.41,0,1,1,0,14.8h-32A7.62,7.62,0,0,1,153.71,57.69Z"/><path class="cls-20" d="M264.22,98.63h-13.6v13.82h13.6Zm-.41,13.43H251V99h12.78Z"/><path class="cls-20" d="M254.36,104.81a2.59,2.59,0,1,0-2.73-2.59A2.67,2.67,0,0,0,254.36,104.81Zm0-4.79a2.2,2.2,0,1,1-2.32,2.2A2.26,2.26,0,0,1,254.36,100Z"/><path class="cls-20" d="M260.76,104.81a2.59,2.59,0,1,0-2.72-2.59A2.67,2.67,0,0,0,260.76,104.81Zm0-4.79a2.2,2.2,0,1,1-2.32,2.2A2.26,2.26,0,0,1,260.76,100Z"/><path class="cls-20" d="M254.36,111.44a2.59,2.59,0,1,0-2.73-2.59A2.67,2.67,0,0,0,254.36,111.44Zm0-4.79a2.2,2.2,0,1,1-2.32,2.2A2.26,2.26,0,0,1,254.36,106.65Z"/><path class="cls-20" d="M260.76,111.44a2.59,2.59,0,1,0-2.72-2.59A2.67,2.67,0,0,0,260.76,111.44Zm0-4.79a2.2,2.2,0,1,1-2.32,2.2A2.26,2.26,0,0,1,260.76,106.65Z"/><path class="cls-20" d="M251.34,141.5v8.25h12.47V129.66H251.34V141.5Zm.41,0h.95v7.86h-.95Zm10.46,0v7.86h-.78V141.5ZM261,149.36h-.79V141.5H261Zm-1.19,0h-.78V141.5h.78Zm-1.19,0h-.78V141.5h.78Zm-1.19,0h-.78V141.5h.78Zm-1.19,0h-.78V141.5h.78Zm-1.19,0h-.78V141.5h.78Zm-1.19,0h-.78V141.5h.78Zm9.51,0h-.78V141.5h.78Zm-11.65-19.31H263.4v11.06H251.75Z"/><path class="cls-20" d="M255.42,72.88a12.46,12.46,0,0,0-4-9.1,14.07,14.07,0,0,0-19.16,0,12.41,12.41,0,0,0,0,18.2,14.06,14.06,0,0,0,19.16,0A12.46,12.46,0,0,0,255.42,72.88ZM241.87,85.36a13.39,13.39,0,0,1-9.29-3.65,12.05,12.05,0,0,1,0-17.66,13.65,13.65,0,0,1,18.58,0,12.05,12.05,0,0,1,0,17.66A13.39,13.39,0,0,1,241.87,85.36Z"/><path class="cls-20" d="M254.75,63.57a3.32,3.32,0,0,0,2.27-.89,3,3,0,0,0,0-4.3,3.34,3.34,0,0,0-4.53,0,2.93,2.93,0,0,0,0,4.3A3.29,3.29,0,0,0,254.75,63.57Zm-2-4.91a2.89,2.89,0,0,1,4,0,2.55,2.55,0,0,1,0,3.75,2.91,2.91,0,0,1-4,0A2.56,2.56,0,0,1,252.78,58.66Z"/><path class="cls-20" d="M228.87,63.68a3.23,3.23,0,0,0,2.26-.89,2.92,2.92,0,0,0,0-4.29,3.32,3.32,0,0,0-4.53,0,2.94,2.94,0,0,0,0,4.29A3.27,3.27,0,0,0,228.87,63.68Zm-2-4.91a2.92,2.92,0,0,1,4,0,2.55,2.55,0,0,1,0,3.75,2.91,2.91,0,0,1-4,0A2.58,2.58,0,0,1,226.89,58.77Z"/><path class="cls-20" d="M226.72,83.08a3,3,0,0,0,0,4.3,3.33,3.33,0,0,0,4.53,0,2.93,2.93,0,0,0,0-4.3A3.34,3.34,0,0,0,226.72,83.08Zm4.24,4a2.91,2.91,0,0,1-4,0,2.56,2.56,0,0,1,0-3.75,2.89,2.89,0,0,1,4,0A2.56,2.56,0,0,1,231,87.11Z"/><path class="cls-20" d="M252.61,83a2.93,2.93,0,0,0,0,4.3,3.28,3.28,0,0,0,2.26.89,3.32,3.32,0,0,0,2.27-.89,3,3,0,0,0,0-4.3A3.32,3.32,0,0,0,252.61,83Zm4.24,4a2.89,2.89,0,0,1-4,0,2.55,2.55,0,0,1,0-3.75,2.92,2.92,0,0,1,4,0A2.58,2.58,0,0,1,256.85,87Z"/><path class="cls-20" d="M197,146V132.29h-3.56v1.33H156.1v-1.33h-3.56V146H197Zm-3.15-13.29h2.74v12.9h-2.74v-12.9ZM181.29,134h12.19v9.16H181.29Zm-12.59,0h12.18v9.16H168.7Zm-.41,0v9.16H156.1V134Zm-12.6,11.57H153v-12.9h2.74v12.9Zm12.6,0H156.1v-2h12.19Zm12.59,0H168.7v-2h12.18Zm12.6,0H181.29v-2h12.19Z"/><path class="cls-20" d="M189.81,109.09h-30v4.19h30Zm-.4,3.8H160.17v-3.41h29.24Z"/><path class="cls-20" d="M186,110.42H163.56v1.52H186Zm-.41,1.13H164v-.74h21.64Z"/><path class="cls-20" d="M68.72,148.23H79.35A1.25,1.25,0,0,0,80.63,147v-3.64a1.26,1.26,0,0,0-1.28-1.22H68.72a1.26,1.26,0,0,0-1.28,1.22V147A1.25,1.25,0,0,0,68.72,148.23Zm-.87-4.85a.85.85,0,0,1,.87-.83H79.35a.85.85,0,0,1,.87.83V147a.85.85,0,0,1-.87.82H68.72a.85.85,0,0,1-.87-.82Z"/><path class="cls-20" d="M84.21,148.23H94.83A1.24,1.24,0,0,0,96.11,147v-3.64a1.25,1.25,0,0,0-1.28-1.22H84.21a1.25,1.25,0,0,0-1.28,1.22V147A1.24,1.24,0,0,0,84.21,148.23Zm-.87-4.85a.85.85,0,0,1,.87-.83H94.83a.85.85,0,0,1,.87.83V147a.85.85,0,0,1-.87.82H84.21a.85.85,0,0,1-.87-.82Z"/><path class="cls-20" d="M91.56,160.74H86.48v-2.27h-4v.39h3.61v10.66H81.83v.39h4.65V168h5.08a3.65,3.65,0,1,0,0-7.29Zm0,6.91H86.48v-6.52h5.08a3.26,3.26,0,1,1,0,6.52Z"/><path class="cls-20" d="M90.26,162.14c-1.77,0-3.2,1-3.2,2.25s1.43,2.25,3.2,2.25,3.2-1,3.2-2.25S92,162.14,90.26,162.14Zm0,4.11c-1.54,0-2.79-.84-2.79-1.86s1.25-1.86,2.79-1.86,2.79.83,2.79,1.86S91.8,166.25,90.26,166.25Z"/><polygon class="cls-20" points="97.94 178.91 121.71 178.91 121.71 188.61 122.11 188.61 122.11 178.52 97.53 178.52 97.53 188.61 97.94 188.61 97.94 178.91"/><path class="cls-20" d="M109.18,183.92c0-1.71-2.18-3.11-4.86-3.11s-4.85,1.4-4.85,3.11,2.17,3.11,4.85,3.11S109.18,185.63,109.18,183.92Zm-9.3,0c0-1.5,2-2.72,4.44-2.72s4.45,1.22,4.45,2.72-2,2.72-4.45,2.72S99.88,185.42,99.88,183.92Z"/><path class="cls-20" d="M105.45,183.92c0-.39-.5-.71-1.13-.71s-1.13.32-1.13.71.51.71,1.13.71S105.45,184.31,105.45,183.92Z"/><path class="cls-20" d="M116.84,183.92c0-.39-.51-.71-1.14-.71s-1.13.32-1.13.71.51.71,1.13.71S116.84,184.31,116.84,183.92Z"/><path class="cls-20" d="M120.56,183.92c0-1.71-2.18-3.11-4.86-3.11s-4.85,1.4-4.85,3.11S113,187,115.7,187,120.56,185.63,120.56,183.92Zm-9.3,0c0-1.5,2-2.72,4.44-2.72s4.45,1.22,4.45,2.72-2,2.72-4.45,2.72S111.26,185.42,111.26,183.92Z"/><polygon class="cls-20" points="49.99 155.65 73.62 155.65 73.62 156.64 74.03 156.64 74.03 154.26 73.62 154.26 73.62 155.26 49.99 155.26 49.99 154.26 49.58 154.26 49.58 156.64 49.99 156.64 49.99 155.65"/><polygon class="cls-20" points="77.58 158.84 77.58 158.45 75.08 158.45 75.08 158.84 76.13 158.84 76.13 188.86 75.08 188.86 75.08 189.25 77.58 189.25 77.58 188.86 76.53 188.86 76.53 158.84 77.58 158.84"/><polygon class="cls-20" points="43.08 149.56 42.03 149.56 42.03 61.06 43.08 61.06 43.08 60.68 40.58 60.68 40.58 61.06 41.63 61.06 41.63 149.56 40.58 149.56 40.58 149.95 43.08 149.95 43.08 149.56"/><polygon class="cls-20" points="135.35 195.23 135.35 192.85 134.94 192.85 134.94 193.84 82.03 193.84 82.03 192.85 81.62 192.85 81.62 195.23 82.03 195.23 82.03 194.23 134.94 194.23 134.94 195.23 135.35 195.23"/><polygon class="cls-20" points="139.83 25.05 217.61 25.05 217.61 26.05 218.01 26.05 218.01 23.67 217.61 23.67 217.61 24.66 139.83 24.66 139.83 23.67 139.42 23.67 139.42 26.05 139.83 26.05 139.83 25.05"/><polygon class="cls-20" points="138.02 217.15 177.61 217.15 177.61 218.02 178.02 218.02 178.02 215.64 177.61 215.64 177.61 216.76 138.02 216.76 138.02 215.77 137.62 215.77 137.62 218.15 138.02 218.15 138.02 217.15"/><polygon class="cls-20" points="265.6 226.84 42.03 226.84 42.03 225.85 41.63 225.85 41.63 228.23 42.03 228.23 42.03 227.23 265.6 227.23 265.6 228.1 266.01 228.1 266.01 225.72 265.6 225.72 265.6 226.84"/><polygon class="cls-20" points="218.01 202.81 218.01 200.44 217.61 200.44 217.61 201.56 181.39 201.56 181.39 200.61 180.99 200.61 180.99 202.99 181.39 202.99 181.39 201.95 217.61 201.95 217.61 202.81 218.01 202.81"/><polygon class="cls-20" points="224.31 174.05 224.31 173.66 221.81 173.66 221.81 174.05 222.91 174.05 222.91 196.45 222 196.45 222 196.84 224.5 196.84 224.5 196.45 223.32 196.45 223.32 174.05 224.31 174.05"/><polygon class="cls-20" points="222.22 44.52 221.31 44.52 221.31 44.9 223.81 44.9 223.81 44.52 222.63 44.52 222.63 29.27 223.62 29.27 223.62 28.88 221.12 28.88 221.12 29.27 222.22 29.27 222.22 44.52"/><polygon class="cls-20" points="115.91 25.01 135.81 25.01 135.81 25.96 136.22 25.96 136.22 23.58 135.81 23.58 135.81 24.62 115.91 24.62 115.91 23.76 115.5 23.76 115.5 26.14 115.91 26.14 115.91 25.01"/><polygon class="cls-20" points="98.03 25.01 111.77 25.01 111.77 25.96 112.18 25.96 112.18 23.58 111.77 23.58 111.77 24.62 98.03 24.62 98.03 23.76 97.62 23.76 97.62 26.14 98.03 26.14 98.03 25.01"/><polygon class="cls-20" points="89.61 52.11 88.62 52.11 88.62 52.5 91.12 52.5 91.12 52.11 90.02 52.11 90.02 29.71 90.93 29.71 90.93 29.32 88.43 29.32 88.43 29.71 89.61 29.71 89.61 52.11"/><polygon class="cls-20" points="50.03 55.43 94.8 55.43 94.8 56.38 95.21 56.38 95.21 54 94.8 54 94.8 55.05 50.03 55.05 50.03 54.18 49.63 54.18 49.63 56.56 50.03 56.56 50.03 55.43"/><polygon class="cls-20" points="265.6 170.36 226.01 170.36 226.01 169.42 225.6 169.42 225.6 171.79 226.01 171.79 226.01 170.75 265.6 170.75 265.6 171.62 266.01 171.62 266.01 169.24 265.6 169.24 265.6 170.36"/><polygon class="cls-20" points="265.6 48.35 222.63 48.35 222.63 47.41 222.22 47.41 222.22 49.79 222.63 49.79 222.63 48.74 265.6 48.74 265.6 49.61 266.01 49.61 266.01 47.23 265.6 47.23 265.6 48.35"/><polygon class="cls-20" points="269.97 166.07 269.97 52.5 270.96 52.5 270.96 52.11 268.46 52.11 268.46 52.5 269.56 52.5 269.56 166.07 268.65 166.07 268.65 166.46 271.15 166.46 271.15 166.07 269.97 166.07"/></g></g></g></svg>