<svg xmlns="http://www.w3.org/2000/svg" xmlns:xlink="http://www.w3.org/1999/xlink" viewBox="0 0 515.5 556.56"><defs><style>.cls-1,.cls-14,.cls-15,.cls-16,.cls-20,.cls-24{fill:none;}.cls-2{fill:#fff;}.cls-3{clip-path:url(#clip-path);}.cls-4{fill:#b0baff;}.cls-5{fill:#93a0e2;}.cls-6{fill:#b4f9b4;}.cls-7{fill:#cdfccf;}.cls-8{fill:#fecad0;}.cls-9{fill:#feb160;}.cls-10{fill:#6d322f;}.cls-11{fill:#171c51;}.cls-12{fill:#c05142;}.cls-13{fill:#ee84aa;}.cls-14{stroke:#e45e8e;stroke-miterlimit:9;}.cls-14,.cls-15,.cls-20{stroke-linecap:round;}.cls-14,.cls-20{stroke-width:0.53px;}.cls-15,.cls-20{stroke:#171c51;stroke-linejoin:round;}.cls-15,.cls-16{stroke-width:0.79px;}.cls-16{stroke:#587cf8;}.cls-16,.cls-24{stroke-miterlimit:10;}.cls-17{fill:#96a4cd;}.cls-18{fill:#e6eafd;}.cls-19{fill:#7389bb;}.cls-21{fill:#f1f7a4;}.cls-22{fill:#ccce7a;}.cls-23{fill:#0091d2;opacity:0.58;}.cls-24{stroke:#0091d2;stroke-width:1.82px;}</style><clipPath id="clip-path"><rect class="cls-1" x="53.8" y="43.21" width="399.47" height="252.79"/></clipPath></defs><title>Asset 8</title><g id="Layer_2" data-name="Layer 2"><g id="Layer_1-2" data-name="Layer 1"><rect class="cls-2" x="53.8" y="43.21" width="398.02" height="252.79"/><g class="cls-3"><rect class="cls-4" x="96.34" y="141.96" width="70.7" height="45.49" rx="18.46"/><path class="cls-5" d="M140.92,166.58a1.89,1.89,0,0,0-2.55,0l-2.27,2.17a2.76,2.76,0,0,1-3.77,0l-5.87-5.59a1.87,1.87,0,0,0-2.55,0l-12.66,12a1.67,1.67,0,0,0,0,2.44,1.9,1.9,0,0,0,1.25.49h36.16a1.77,1.77,0,0,0,1.82-1.71,1.67,1.67,0,0,0-.54-1.23Z"/><ellipse class="cls-5" cx="136.02" cy="155.76" rx="5.42" ry="5.16"/><ellipse class="cls-6" cx="141.12" cy="98.36" rx="2.64" ry="2.51"/><ellipse class="cls-6" cx="186.36" cy="83.38" rx="2.64" ry="2.51"/><ellipse class="cls-6" cx="235.3" cy="100.87" rx="2.64" ry="2.51"/><ellipse class="cls-6" cx="186.97" cy="140.41" rx="3.49" ry="3.32"/><ellipse class="cls-6" cx="371.37" cy="71.33" rx="1.77" ry="1.69"/><ellipse class="cls-6" cx="208.92" cy="115.94" rx="1.51" ry="1.44"/><ellipse class="cls-6" cx="131.99" cy="126.75" rx="1.51" ry="1.44"/><ellipse class="cls-6" cx="354.18" cy="97.65" rx="2.14" ry="2.03"/><ellipse class="cls-6" cx="388.84" cy="99.95" rx="2.82" ry="2.69"/><ellipse class="cls-6" cx="401.48" cy="77.6" rx="2.82" ry="2.69"/><ellipse class="cls-6" cx="407.96" cy="64.49" rx="1.22" ry="1.16"/><ellipse class="cls-6" cx="345.67" cy="73.25" rx="1.22" ry="1.16"/><ellipse class="cls-6" cx="382.82" cy="59.55" rx="0.58" ry="0.55"/><ellipse class="cls-6" cx="420.6" cy="92.32" rx="1.42" ry="1.35"/><ellipse class="cls-6" cx="444.88" cy="84.28" rx="1.42" ry="1.35"/><ellipse class="cls-6" cx="426.75" cy="124.51" rx="1.87" ry="1.78"/><ellipse class="cls-6" cx="445.21" cy="114.9" rx="1.87" ry="1.78"/><ellipse class="cls-6" cx="175.61" cy="223.27" rx="0.81" ry="0.77"/><ellipse class="cls-6" cx="415.7" cy="107.57" rx="0.81" ry="0.77"/><ellipse class="cls-6" cx="440.33" cy="98.48" rx="0.38" ry="0.36"/><path class="cls-7" d="M54.08,343.62s25.42-43.25,81.63-54.86,78.7-53.78,94.75-79.3S295.4,129.68,397,163.3,515.5,123.57,515.5,123.57L505.87,361.2H54.08Z"/><polyline class="cls-8" points="323.96 477.55 321.74 538.07 328.4 548.99 344.5 543 348.76 483"/><path class="cls-9" d="M287.36,553.37,322.48,534l6.66,9H344.5l1.67,13.56H288.25A1.7,1.7,0,0,1,287.36,553.37Z"/><polyline class="cls-8" points="431.37 477.55 451.61 538.07 444.94 548.99 428.84 543 406.57 483"/><path class="cls-9" d="M486,553.37,450.87,534l-6.67,9H428.84l-1.66,13.56h57.91A1.7,1.7,0,0,0,486,553.37Z"/><path class="cls-10" d="M325.94,278.38l-8.33,228.43,32.94,2.29,12.59-142.84,49.6,147.21L442,504.73s-39.6-155.38-44.05-177.57-2.22-33.82-9.25-49.31Z"/><path class="cls-11" d="M352.27,125c-9.49-2.47-16.71,10.74-14.49,27.12s-12.58,32.06-10.92,38.75,34.61,16,56.64,15.85,28.87-9.34,24.8-15.85-10.55-12.86-10-32.5S384.53,102.08,352.27,125Z"/><path class="cls-8" d="M306.87,218.5l-12.21,26.06-18.88-42.14S273.37,188,271.43,184s-1.29-9.42-3.89-10.22-3.51,3.61-3.51,7.4a47.49,47.49,0,0,1-.65,7.4s-5.74-5.84-6.39-8.66-5.36-15.56-7.77-16.79-5.09,1.58-5.64,9.77,16.75,32.06,16.75,32.06L273,263.41l35.54,6.16,21.1-32.93Z"/><path class="cls-12" d="M415.71,226.18l-13.08,9-1.23.84-9.76,6.75-1.48,36.8-6-.11-1.23,0-17.19-.34h-1.23l-17.2-.33-1.23,0-17.2-.33-1.23,0-1.75,0s.74-9-2-22.12,1.1-22.14,1.1-22.14L306.87,218.5l9.3-13.74A28,28,0,0,1,327.69,195c.41-.19.81-.37,1.23-.54a27.69,27.69,0,0,1,4.19-1.36l13-3.18.71-.18.52-.12,4.41-1.09,12.79,0h1.23l13.93,0,3.26,1.63,1.23.62h0L396,196.74a27.75,27.75,0,0,1,5.45,3.55c.42.33.84.69,1.23,1.06a27,27,0,0,1,6.63,9.44Z"/><path class="cls-2" d="M384.23,190.9c-3.82,7.43-13.9,11.76-26.27,11-10.38-.67-11.65-7.25-11.13-12.12l4.93-1.21,27.95.08Z"/><path class="cls-8" d="M379.71,188.64s-5.1,9.69-18.15,9.69-9.8-9.77-9.8-9.77l3.69-1.15-.21-6-.34-8.83,22.21-6.43a12,12,0,0,0-1,3.61c-1,6.68.09,17.7.09,17.7Z"/><path class="cls-13" d="M377.11,166.1a12,12,0,0,0-1,3.61s0,0,0,0c-6.24,11.94-16.74,12.07-20.85,11.62l-.34-8.83Z"/><path class="cls-8" d="M352.72,134.32c2,10.4,25.41,17.6,27.07,18.78,1,.7,1.28,2.35,1.38,3.6a.26.26,0,0,0,.5.07c.58-1.54,1.77-3.73,3.76-4,3.09-.35,6.07,3.36,4.31,7.81s-8.83,2.1-8.83,2.1-5.74,13.33-19,13.69-16.15-10.3-15.14-16.84.9-9.81.32-13.67S351.61,139.32,352.72,134.32Z"/><path class="cls-14" d="M386.46,155.37c-1.11.31-2.35,3.19-1.85,4.54"/><path d="M365.51,157a1.12,1.12,0,1,0,1.1-1.32A1.22,1.22,0,0,0,365.51,157Z"/><path d="M352.27,156.28a1.12,1.12,0,1,0,1.11-1.32A1.23,1.23,0,0,0,352.27,156.28Z"/><path class="cls-15" d="M371.28,149.9a6.07,6.07,0,0,0-7.08-.84"/><path class="cls-15" d="M349.81,149.78s2.74-2.87,7.13-.24"/><path class="cls-16" d="M357.05,156.62a5.66,5.66,0,1,1-5.65-5.38A5.52,5.52,0,0,1,357.05,156.62Z"/><path class="cls-16" d="M372.72,156.62a5.66,5.66,0,1,1-5.65-5.38A5.52,5.52,0,0,1,372.72,156.62Z"/><path class="cls-16" d="M356.89,155.37a3.43,3.43,0,0,1,4.69,0"/><path class="cls-17" d="M321.57,277.85H266.74a2,2,0,0,1-2-1.37L253,235.87a1.91,1.91,0,0,1,1.41-2.35l.68-.18H310Z"/><path class="cls-18" d="M288.9,257.59a4.27,4.27,0,1,1-4.26-4A4.16,4.16,0,0,1,288.9,257.59Z"/><rect class="cls-19" x="319.58" y="273.36" width="47.5" height="4.49" rx="1.44"/><path class="cls-19" d="M307.75,235.37l11.84,40.88a1.47,1.47,0,0,0,1.81,1l1.71-.45a1.4,1.4,0,0,0,1-1.72L312.3,234.18a1.5,1.5,0,0,0-1.81-1l-1.71.45A1.39,1.39,0,0,0,307.75,235.37Z"/><path class="cls-8" d="M435.48,289.48a17,17,0,0,1-6.61,13.37,18.9,18.9,0,0,1-21.86.89l-30.49-20s-16.59,3.46-24,2.81S337,282.19,337,280.73s30-4.47,28.62-5.64-14.86-1.28-15.05-4,3.21-3.7,8.82-4.06,12.77,2.35,12.77,2.35l30.52,4L394,249.3l-2.35-6.49,24.07-16.63,1.56,4.83,17.4,53.36A16.48,16.48,0,0,1,435.48,289.48Z"/><polygon class="cls-13" points="415.71 226.18 417.27 231.01 393.99 249.3 391.64 242.81 415.71 226.18"/><line class="cls-14" x1="402.65" y1="273.36" x2="415.7" y2="275.03"/><path class="cls-11" d="M330.36,275.61a.72.72,0,1,1-.72-.69A.7.7,0,0,1,330.36,275.61Z"/><path class="cls-11" d="M333.27,275.61a.72.72,0,1,1-.72-.69A.7.7,0,0,1,333.27,275.61Z"/><path class="cls-17" d="M350.56,517.43,317,516.35a2.8,2.8,0,0,1-2.77-2.82l.24-6.69a2.81,2.81,0,0,1,3-2.64L351,505.28a2.78,2.78,0,0,1,2.77,2.82l-.24,6.69A2.81,2.81,0,0,1,350.56,517.43Z"/><path class="cls-17" d="M445.35,510.34l-32.18,9.17a2.9,2.9,0,0,1-3.57-1.83l-2-6.41a2.71,2.71,0,0,1,1.93-3.4l32.17-9.17a2.88,2.88,0,0,1,3.57,1.83l2,6.41A2.71,2.71,0,0,1,445.35,510.34Z"/><line class="cls-20" x1="353.64" y1="336.44" x2="368.92" y2="383.41"/><path class="cls-20" d="M328.92,255.22c8.12,7.13,22.48,8.19,22.48,8.19"/><line class="cls-20" x1="391.64" y1="242.81" x2="381.28" y2="226.18"/><path class="cls-20" d="M325,234.13c4.44-8.41,5.35-19.33,5.35-19.33"/><ellipse class="cls-6" cx="317.89" cy="80.19" rx="1.77" ry="1.69"/><ellipse class="cls-6" cx="287.33" cy="69.42" rx="0.71" ry="0.68"/><ellipse class="cls-6" cx="262.57" cy="80.87" rx="0.71" ry="0.68"/><ellipse class="cls-6" cx="177.87" cy="109.83" rx="0.71" ry="0.68"/><rect class="cls-21" x="131.94" y="75.24" width="120.04" height="77.23" rx="23.08"/><path class="cls-22" d="M207.63,117.06a3.19,3.19,0,0,0-4.33,0l-7.06,6.72-13.17-12.54a3.19,3.19,0,0,0-4.33,0l-21.49,20.45a2.83,2.83,0,0,0,.05,4.14,3.15,3.15,0,0,0,2.1.83h61.4a3,3,0,0,0,3.09-2.9,2.88,2.88,0,0,0-.91-2.1Z"/><ellipse class="cls-22" cx="199.31" cy="98.68" rx="9.21" ry="8.76"/><rect class="cls-4" x="238.25" y="59.04" width="96.7" height="62.22" rx="18.46"/><path class="cls-5" d="M299.23,92.73a2.57,2.57,0,0,0-3.49,0l-3.11,3a3.79,3.79,0,0,1-5.16,0l-8-7.64a2.55,2.55,0,0,0-3.49,0l-17.31,16.47a2.28,2.28,0,0,0,0,3.33,2.59,2.59,0,0,0,1.7.67h49.47a2.41,2.41,0,0,0,2.48-2.34,2.26,2.26,0,0,0-.73-1.68Z"/><ellipse class="cls-5" cx="292.52" cy="77.93" rx="7.42" ry="7.06"/><rect class="cls-1" x="54.08" y="42.46" width="399.19" height="253.55"/><ellipse class="cls-23" cx="54.57" cy="51.92" rx="54.57" ry="51.92"/><ellipse class="cls-24" cx="63.32" cy="58.09" rx="54.57" ry="51.92"/></g></g></g></svg>